EBGaramondVF-xopaqueMax.ufo
<glyph name="exclam" format="1">
  <advance width="495"/>
  <unicode hex="0021"/>
  <outline>
    <contour>
      <point x="251" y="205" type="curve" smooth="yes"/>
      <point x="302" y="205"/>
      <point x="340" y="232"/>
      <point x="352" y="284" type="curve"/>
      <point x="373" y="374"/>
      <point x="416" y="488"/>
      <point x="416" y="553" type="curve" smooth="yes"/>
      <point x="416" y="604"/>
      <point x="350" y="649"/>
      <point x="251" y="649" type="curve" smooth="yes"/>
      <point x="152" y="649"/>
      <point x="79" y="604"/>
      <point x="79" y="553" type="curve" smooth="yes"/>
      <point x="79" y="488"/>
      <point x="121" y="374"/>
      <point x="148" y="285" type="curve" smooth="yes"/>
      <point x="163" y="235"/>
      <point x="201" y="205"/>
    </contour>
    <contour>
      <point x="246" y="-14" type="curve" smooth="yes"/>
      <point x="370" y="-14"/>
      <point x="430" y="1"/>
      <point x="430" y="51" type="curve" smooth="yes"/>
      <point x="430" y="99"/>
      <point x="370" y="115"/>
      <point x="246" y="115" type="curve" smooth="yes"/>
      <point x="125" y="115"/>
      <point x="65" y="99"/>
      <point x="65" y="51" type="curve" smooth="yes"/>
      <point x="65" y="1"/>
      <point x="125" y="-14"/>
    </contour>
  </outline>
</glyph>
<glyph name="numbersign" format="1">
  <advance width="529"/>
  <unicode hex="0023"/>
  <outline>
    <contour>
      <point x="104" y="-81"/>
      <point x="118" y="-79"/>
      <point x="121" y="-66" type="curve" smooth="yes"/>
      <point x="136" y="-10" type="line"/>
      <point x="249" y="-4" type="line"/>
      <point x="236" y="-55" type="line"/>
      <point x="236" y="-58" type="line" smooth="yes"/>
      <point x="236" y="-64"/>
      <point x="240" y="-70"/>
      <point x="246" y="-70" type="curve" smooth="yes"/>
      <point x="259" y="-70"/>
      <point x="273" y="-68"/>
      <point x="276" y="-55" type="curve" smooth="yes"/>
      <point x="290" y="-2" type="line"/>
      <point x="353" y="1" type="line" smooth="yes"/>
      <point x="403" y="3"/>
      <point x="422" y="144"/>
      <point x="422" y="181" type="curve" smooth="yes"/>
      <point x="422" y="209"/>
      <point x="410" y="227"/>
      <point x="398" y="227" type="curve"/>
      <point x="344" y="224" type="line"/>
      <point x="358" y="278" type="line"/>
      <point x="414" y="281" type="line" smooth="yes"/>
      <point x="464" y="284"/>
      <point x="485" y="447"/>
      <point x="485" y="488" type="curve" smooth="yes"/>
      <point x="485" y="497"/>
      <point x="478" y="502"/>
      <point x="470" y="502" type="curve"/>
      <point x="413" y="499" type="line"/>
      <point x="425" y="551" type="line"/>
      <point x="425" y="553"/>
      <point x="426" y="554"/>
      <point x="426" y="556" type="curve" smooth="yes"/>
      <point x="426" y="562"/>
      <point x="423" y="568"/>
      <point x="418" y="568" type="curve" smooth="yes"/>
      <point x="404" y="568"/>
      <point x="388" y="565"/>
      <point x="385" y="551" type="curve" smooth="yes"/>
      <point x="372" y="497" type="line"/>
      <point x="259" y="491" type="line"/>
      <point x="270" y="541" type="line"/>
      <point x="270" y="542"/>
      <point x="271" y="543"/>
      <point x="271" y="545" type="curve" smooth="yes"/>
      <point x="271" y="551"/>
      <point x="268" y="557"/>
      <point x="263" y="557" type="curve" smooth="yes"/>
      <point x="249" y="557"/>
      <point x="233" y="554"/>
      <point x="230" y="540" type="curve" smooth="yes"/>
      <point x="218" y="489" type="line"/>
      <point x="149" y="486" type="line" smooth="yes"/>
      <point x="93" y="484"/>
      <point x="85" y="340"/>
      <point x="85" y="301" type="curve" smooth="yes"/>
      <point x="85" y="280"/>
      <point x="101" y="265"/>
      <point x="117" y="265" type="curve"/>
      <point x="163" y="268" type="line"/>
      <point x="149" y="214" type="line"/>
      <point x="82" y="211" type="line" smooth="yes"/>
      <point x="25" y="209"/>
      <point x="17" y="44"/>
      <point x="17" y="0" type="curve" smooth="yes"/>
      <point x="17" y="-9"/>
      <point x="25" y="-15"/>
      <point x="34" y="-15" type="curve"/>
      <point x="94" y="-12" type="line"/>
      <point x="81" y="-66" type="line"/>
      <point x="81" y="-69" type="line" smooth="yes"/>
      <point x="81" y="-75"/>
      <point x="85" y="-81"/>
      <point x="91" y="-81" type="curve" smooth="yes"/>
    </contour>
    <contour>
      <point x="204" y="270" type="line"/>
      <point x="317" y="276" type="line"/>
      <point x="304" y="222" type="line"/>
      <point x="190" y="216" type="line"/>
    </contour>
  </outline>
</glyph>
<glyph name="quotesingle" format="1">
  <advance width="402"/>
  <unicode hex="0027"/>
  <outline>
    <contour>
      <point x="116" y="319"/>
      <point x="149" y="339"/>
      <point x="169" y="358" type="curve" smooth="yes"/>
      <point x="223" y="413"/>
      <point x="340" y="547"/>
      <point x="340" y="627" type="curve" smooth="yes"/>
      <point x="340" y="653"/>
      <point x="325" y="676"/>
      <point x="289" y="676" type="curve" smooth="yes"/>
      <point x="231" y="676"/>
      <point x="191" y="663"/>
      <point x="131" y="644" type="curve"/>
      <point x="102" y="633"/>
      <point x="62" y="611"/>
      <point x="62" y="590" type="curve" smooth="yes"/>
      <point x="62" y="588"/>
      <point x="77" y="498"/>
      <point x="77" y="442" type="curve" smooth="yes"/>
      <point x="77" y="414"/>
      <point x="77" y="387"/>
      <point x="73" y="354" type="curve"/>
      <point x="73" y="341"/>
      <point x="80" y="319"/>
      <point x="98" y="319" type="curve" smooth="yes"/>
    </contour>
  </outline>
</glyph>
<glyph name="parenleft" format="1">
  <advance width="459"/>
  <unicode hex="0028"/>
  <outline>
    <contour>
      <point x="321" y="-214" type="curve" smooth="yes"/>
      <point x="349" y="-214"/>
      <point x="409" y="-206"/>
      <point x="409" y="-192" type="curve" smooth="yes"/>
      <point x="409" y="-183"/>
      <point x="393" y="-160"/>
      <point x="386" y="-147" type="curve" smooth="yes"/>
      <point x="356" y="-93"/>
      <point x="280" y="111"/>
      <point x="280" y="281" type="curve" smooth="yes"/>
      <point x="280" y="451"/>
      <point x="345" y="597"/>
      <point x="382" y="643" type="curve" smooth="yes"/>
      <point x="392" y="655"/>
      <point x="409" y="674"/>
      <point x="409" y="683" type="curve" smooth="yes"/>
      <point x="409" y="697"/>
      <point x="349" y="705"/>
      <point x="321" y="705" type="curve" smooth="yes"/>
      <point x="267" y="705"/>
      <point x="215" y="685"/>
      <point x="194" y="665" type="curve" smooth="yes"/>
      <point x="145" y="623"/>
      <point x="40" y="439"/>
      <point x="40" y="269" type="curve" smooth="yes"/>
      <point x="40" y="99"/>
      <point x="149" y="-129"/>
      <point x="194" y="-174" type="curve" smooth="yes"/>
      <point x="215" y="-194"/>
      <point x="267" y="-214"/>
    </contour>
  </outline>
</glyph>
<glyph name="asterisk" format="1">
  <advance width="340"/>
  <unicode hex="002A"/>
  <outline>
    <contour>
      <point x="208" y="354"/>
      <point x="218" y="373"/>
      <point x="218" y="390" type="curve" smooth="yes"/>
      <point x="218" y="414"/>
      <point x="214" y="450"/>
      <point x="214" y="458" type="curve"/>
      <point x="233" y="452"/>
      <point x="254" y="443"/>
      <point x="274" y="437" type="curve"/>
      <point x="301" y="431"/>
      <point x="320" y="442"/>
      <point x="320" y="465" type="curve" smooth="yes"/>
      <point x="320" y="478"/>
      <point x="310" y="490"/>
      <point x="298" y="497" type="curve" smooth="yes"/>
      <point x="277" y="509"/>
      <point x="246" y="519"/>
      <point x="239" y="523" type="curve"/>
      <point x="287" y="564" type="line" smooth="yes"/>
      <point x="297" y="573"/>
      <point x="302" y="584"/>
      <point x="302" y="594" type="curve" smooth="yes"/>
      <point x="302" y="610"/>
      <point x="288" y="623"/>
      <point x="274" y="623" type="curve" smooth="yes"/>
      <point x="265" y="623"/>
      <point x="257" y="620"/>
      <point x="249" y="615" type="curve" smooth="yes"/>
      <point x="231" y="601"/>
      <point x="203" y="583"/>
      <point x="196" y="579" type="curve"/>
      <point x="187" y="642" type="line" smooth="yes"/>
      <point x="185" y="659"/>
      <point x="173" y="674"/>
      <point x="155" y="675" type="curve"/>
      <point x="134" y="674"/>
      <point x="124" y="655"/>
      <point x="124" y="636" type="curve" smooth="yes"/>
      <point x="124" y="613"/>
      <point x="124" y="594"/>
      <point x="127" y="572" type="curve"/>
      <point x="107" y="579"/>
      <point x="87" y="587"/>
      <point x="67" y="595" type="curve" smooth="yes"/>
      <point x="40" y="606"/>
      <point x="20" y="593"/>
      <point x="20" y="571" type="curve" smooth="yes"/>
      <point x="20" y="556"/>
      <point x="29" y="544"/>
      <point x="42" y="538" type="curve" smooth="yes"/>
      <point x="62" y="527"/>
      <point x="92" y="512"/>
      <point x="98" y="507" type="curve"/>
      <point x="49" y="467" type="line"/>
      <point x="39" y="461"/>
      <point x="32" y="449"/>
      <point x="32" y="437" type="curve" smooth="yes"/>
      <point x="32" y="420"/>
      <point x="46" y="410"/>
      <point x="61" y="410" type="curve" smooth="yes"/>
      <point x="69" y="410"/>
      <point x="76" y="413"/>
      <point x="85" y="417" type="curve" smooth="yes"/>
      <point x="106" y="427"/>
      <point x="134" y="448"/>
      <point x="142" y="451" type="curve"/>
      <point x="154" y="387" type="line"/>
      <point x="157" y="368"/>
      <point x="171" y="354"/>
      <point x="187" y="354" type="curve" smooth="yes"/>
    </contour>
  </outline>
</glyph>
<glyph name="period" format="1">
  <advance width="340"/>
  <unicode hex="002E"/>
  <outline>
    <contour>
      <point x="230" y="-14"/>
      <point x="280" y="36"/>
      <point x="280" y="96" type="curve" smooth="yes"/>
      <point x="280" y="156"/>
      <point x="230" y="206"/>
      <point x="170" y="206" type="curve" smooth="yes"/>
      <point x="110" y="206"/>
      <point x="60" y="156"/>
      <point x="60" y="96" type="curve" smooth="yes"/>
      <point x="60" y="36"/>
      <point x="110" y="-14"/>
      <point x="170" y="-14" type="curve" smooth="yes"/>
    </contour>
  </outline>
</glyph>
<glyph name="zero" format="1">
  <advance width="1150"/>
  <unicode hex="0030"/>
  <outline>
    <contour>
      <point x="562" y="-13" type="curve" smooth="yes"/>
      <point x="953" y="-13"/>
      <point x="1116" y="167"/>
      <point x="1116" y="317" type="curve" smooth="yes"/>
      <point x="1116" y="462"/>
      <point x="947" y="631"/>
      <point x="588" y="631" type="curve" smooth="yes"/>
      <point x="197" y="631"/>
      <point x="34" y="455"/>
      <point x="34" y="303" type="curve" smooth="yes"/>
      <point x="34" y="155"/>
      <point x="203" y="-13"/>
    </contour>
    <contour>
      <point x="588" y="13" type="curve" smooth="yes"/>
      <point x="498" y="13"/>
      <point x="454" y="171"/>
      <point x="454" y="321" type="curve" smooth="yes"/>
      <point x="454" y="471"/>
      <point x="482" y="603"/>
      <point x="562" y="603" type="curve" smooth="yes"/>
      <point x="652" y="603"/>
      <point x="699" y="449"/>
      <point x="699" y="299" type="curve" smooth="yes"/>
      <point x="699" y="149"/>
      <point x="668" y="13"/>
    </contour>
  </outline>
</glyph>
<glyph name="one" format="1">
  <advance width="1150"/>
  <unicode hex="0031"/>
  <outline>
    <contour>
      <point x="189" y="-3" type="curve" smooth="yes"/>
      <point x="374" y="-3"/>
      <point x="468" y="2"/>
      <point x="589" y="2" type="curve" smooth="yes"/>
      <point x="708" y="2"/>
      <point x="791" y="-3"/>
      <point x="976" y="-3" type="curve" smooth="yes"/>
      <point x="1005" y="-3"/>
      <point x="1028" y="2"/>
      <point x="1028" y="8" type="curve" smooth="yes"/>
      <point x="1028" y="14"/>
      <point x="1014" y="19"/>
      <point x="1001" y="21" type="curve" smooth="yes"/>
      <point x="866" y="42"/>
      <point x="827" y="46"/>
      <point x="827" y="97" type="curve" smooth="yes"/>
      <point x="827" y="557" type="line" smooth="yes"/>
      <point x="827" y="585"/>
      <point x="828" y="608"/>
      <point x="831" y="628" type="curve"/>
      <point x="832" y="633"/>
      <point x="825" y="637"/>
      <point x="819" y="637" type="curve" smooth="yes"/>
      <point x="811" y="637"/>
      <point x="790" y="632"/>
      <point x="761" y="623" type="curve" smooth="yes"/>
      <point x="657" y="591"/>
      <point x="511" y="582"/>
      <point x="295" y="574" type="curve" smooth="yes"/>
      <point x="218" y="571"/>
      <point x="156" y="565"/>
      <point x="156" y="556" type="curve" smooth="yes"/>
      <point x="156" y="545"/>
      <point x="178" y="540"/>
      <point x="201" y="539" type="curve" smooth="yes"/>
      <point x="275" y="536"/>
      <point x="345" y="529"/>
      <point x="345" y="491" type="curve" smooth="yes"/>
      <point x="345" y="109" type="line" smooth="yes"/>
      <point x="345" y="50"/>
      <point x="287" y="41"/>
      <point x="156" y="22" type="curve" smooth="yes"/>
      <point x="142" y="20"/>
      <point x="130" y="14"/>
      <point x="130" y="9" type="curve" smooth="yes"/>
      <point x="130" y="3"/>
      <point x="149" y="-3"/>
    </contour>
  </outline>
</glyph>
<glyph name="two" format="1">
  <advance width="1150"/>
  <unicode hex="0032"/>
  <outline>
    <contour>
      <point x="926" y="-3" type="curve" smooth="yes"/>
      <point x="933" y="-3"/>
      <point x="943" y="4"/>
      <point x="947" y="52" type="curve" smooth="yes"/>
      <point x="957" y="166"/>
      <point x="977" y="289"/>
      <point x="977" y="298" type="curve" smooth="yes"/>
      <point x="977" y="303"/>
      <point x="965" y="310"/>
      <point x="956" y="310" type="curve" smooth="yes"/>
      <point x="939" y="310"/>
      <point x="925" y="295"/>
      <point x="918" y="288" type="curve" smooth="yes"/>
      <point x="879" y="249"/>
      <point x="869" y="246"/>
      <point x="782" y="243" type="curve" smooth="yes"/>
      <point x="723" y="241"/>
      <point x="658" y="240"/>
      <point x="596" y="240" type="curve" smooth="yes"/>
      <point x="536" y="240"/>
      <point x="489" y="240"/>
      <point x="453" y="243" type="curve" smooth="yes"/>
      <point x="440" y="244"/>
      <point x="430" y="245"/>
      <point x="430" y="250" type="curve"/>
      <point x="550" y="290"/>
      <point x="671" y="330"/>
      <point x="791" y="370" type="curve" smooth="yes"/>
      <point x="876" y="398"/>
      <point x="917" y="444"/>
      <point x="917" y="485" type="curve" smooth="yes"/>
      <point x="917" y="582"/>
      <point x="771" y="630"/>
      <point x="526" y="630" type="curve" smooth="yes"/>
      <point x="217" y="630"/>
      <point x="74" y="577"/>
      <point x="74" y="514" type="curve" smooth="yes"/>
      <point x="74" y="488"/>
      <point x="128" y="471"/>
      <point x="155" y="471" type="curve" smooth="yes"/>
      <point x="168" y="471"/>
      <point x="177" y="477"/>
      <point x="188" y="492" type="curve" smooth="yes"/>
      <point x="204" y="513"/>
      <point x="260" y="566"/>
      <point x="315" y="566" type="curve" smooth="yes"/>
      <point x="372" y="566"/>
      <point x="422" y="523"/>
      <point x="422" y="452" type="curve" smooth="yes"/>
      <point x="422" y="364"/>
      <point x="373" y="274"/>
      <point x="306" y="205" type="curve" smooth="yes"/>
      <point x="135" y="28" type="line" smooth="yes"/>
      <point x="129" y="22"/>
      <point x="127" y="21"/>
      <point x="127" y="15" type="curve" smooth="yes"/>
      <point x="127" y="9"/>
      <point x="142" y="-2"/>
      <point x="147" y="-2" type="curve" smooth="yes"/>
      <point x="189" y="-2"/>
      <point x="533" y="3"/>
      <point x="639" y="3" type="curve" smooth="yes"/>
      <point x="745" y="3"/>
      <point x="883" y="-3"/>
    </contour>
  </outline>
</glyph>
<glyph name="three" format="1">
  <advance width="1150"/>
  <unicode hex="0033"/>
  <outline>
    <contour>
      <point x="384" y="-38" type="curve" smooth="yes"/>
      <point x="674" y="-38"/>
      <point x="976" y="53"/>
      <point x="976" y="203" type="curve" smooth="yes"/>
      <point x="976" y="328"/>
      <point x="811" y="373"/>
      <point x="598" y="360" type="curve"/>
      <point x="597" y="362"/>
      <point x="597" y="364"/>
      <point x="596" y="366" type="curve"/>
      <point x="812" y="380"/>
      <point x="928" y="432"/>
      <point x="928" y="516" type="curve" smooth="yes"/>
      <point x="928" y="582"/>
      <point x="772" y="630"/>
      <point x="572" y="630" type="curve" smooth="yes"/>
      <point x="267" y="630"/>
      <point x="126" y="564"/>
      <point x="126" y="529" type="curve" smooth="yes"/>
      <point x="126" y="496"/>
      <point x="188" y="481"/>
      <point x="218" y="481" type="curve" smooth="yes"/>
      <point x="233" y="481"/>
      <point x="249" y="570"/>
      <point x="352" y="570" type="curve" smooth="yes"/>
      <point x="406" y="570"/>
      <point x="446" y="521"/>
      <point x="446" y="466" type="curve" smooth="yes"/>
      <point x="446" y="395"/>
      <point x="313" y="343"/>
      <point x="290" y="332" type="curve" smooth="yes"/>
      <point x="277" y="326"/>
      <point x="265" y="315"/>
      <point x="260" y="298" type="curve" smooth="yes"/>
      <point x="257" y="288"/>
      <point x="292" y="281"/>
      <point x="307" y="289" type="curve" smooth="yes"/>
      <point x="330" y="301"/>
      <point x="357" y="304"/>
      <point x="372" y="304" type="curve" smooth="yes"/>
      <point x="449" y="304"/>
      <point x="488" y="223"/>
      <point x="488" y="146" type="curve" smooth="yes"/>
      <point x="488" y="63"/>
      <point x="415" y="0"/>
      <point x="342" y="0" type="curve" smooth="yes"/>
      <point x="305" y="0"/>
      <point x="284" y="16"/>
      <point x="267" y="31" type="curve" smooth="yes"/>
      <point x="255" y="42"/>
      <point x="243" y="51"/>
      <point x="228" y="51" type="curve" smooth="yes"/>
      <point x="204" y="51"/>
      <point x="148" y="23"/>
      <point x="148" y="5" type="curve" smooth="yes"/>
      <point x="148" y="-11"/>
      <point x="284" y="-38"/>
    </contour>
  </outline>
</glyph>
<glyph name="four" format="1">
  <advance width="1150"/>
  <unicode hex="0034"/>
  <outline>
    <contour>
      <point x="355" y="-3" type="curve" smooth="yes"/>
      <point x="534" y="-3"/>
      <point x="559" y="2"/>
      <point x="688" y="2" type="curve" smooth="yes"/>
      <point x="807" y="2"/>
      <point x="833" y="-3"/>
      <point x="999" y="-3" type="curve" smooth="yes"/>
      <point x="1029" y="-3"/>
      <point x="1055" y="2"/>
      <point x="1055" y="8" type="curve" smooth="yes"/>
      <point x="1055" y="14"/>
      <point x="1040" y="20"/>
      <point x="1029" y="22" type="curve" smooth="yes"/>
      <point x="950" y="36"/>
      <point x="930" y="45"/>
      <point x="930" y="84" type="curve" smooth="yes"/>
      <point x="930" y="178" type="line" smooth="yes"/>
      <point x="930" y="179"/>
      <point x="942" y="183"/>
      <point x="950" y="184" type="curve"/>
      <point x="961" y="185"/>
      <point x="977" y="186"/>
      <point x="995" y="186" type="curve" smooth="yes"/>
      <point x="1018" y="186"/>
      <point x="1045" y="185"/>
      <point x="1067" y="185" type="curve" smooth="yes"/>
      <point x="1073" y="185"/>
      <point x="1098" y="207"/>
      <point x="1098" y="223" type="curve" smooth="yes"/>
      <point x="1098" y="227"/>
      <point x="1090" y="231"/>
      <point x="1082" y="231" type="curve"/>
      <point x="1049" y="230"/>
      <point x="1023" y="229"/>
      <point x="995" y="229" type="curve" smooth="yes"/>
      <point x="977" y="229"/>
      <point x="958" y="229"/>
      <point x="936" y="230" type="curve"/>
      <point x="932" y="230"/>
      <point x="929" y="233"/>
      <point x="929" y="236" type="curve" smooth="yes"/>
      <point x="929" y="365" type="line" smooth="yes"/>
      <point x="929" y="407"/>
      <point x="929" y="429"/>
      <point x="914" y="429" type="curve" smooth="yes"/>
      <point x="849" y="429"/>
      <point x="655" y="427"/>
      <point x="512" y="416" type="curve"/>
      <point x="454" y="412"/>
      <point x="447" y="408"/>
      <point x="447" y="394" type="curve" smooth="yes"/>
      <point x="447" y="239" type="line" smooth="yes"/>
      <point x="447" y="235"/>
      <point x="440" y="231"/>
      <point x="435" y="231" type="curve" smooth="yes"/>
      <point x="132" y="231" type="line" smooth="yes"/>
      <point x="128" y="231"/>
      <point x="129" y="237"/>
      <point x="132" y="240" type="curve" smooth="yes"/>
      <point x="632" y="628" type="line"/>
      <point x="632" y="628"/>
      <point x="640" y="642"/>
      <point x="634" y="642" type="curve" smooth="yes"/>
      <point x="313" y="642" type="line" smooth="yes"/>
      <point x="303" y="642"/>
      <point x="290" y="626"/>
      <point x="283" y="614" type="curve" smooth="yes"/>
      <point x="79" y="252" type="line" smooth="yes"/>
      <point x="68" y="233"/>
      <point x="55" y="219"/>
      <point x="30" y="188" type="curve"/>
      <point x="29" y="187"/>
      <point x="29" y="186"/>
      <point x="29" y="185" type="curve" smooth="yes"/>
      <point x="29" y="181"/>
      <point x="34" y="175"/>
      <point x="39" y="175" type="curve" smooth="yes"/>
      <point x="144" y="175"/>
      <point x="350" y="182"/>
      <point x="432" y="182" type="curve" smooth="yes"/>
      <point x="433" y="182"/>
      <point x="447" y="179"/>
      <point x="447" y="173" type="curve" smooth="yes"/>
      <point x="447" y="80" type="line" smooth="yes"/>
      <point x="447" y="48"/>
      <point x="419" y="30"/>
      <point x="303" y="22" type="curve" smooth="yes"/>
      <point x="288" y="21"/>
      <point x="269" y="17"/>
      <point x="269" y="10" type="curve" smooth="yes"/>
      <point x="269" y="1"/>
      <point x="322" y="-3"/>
    </contour>
  </outline>
</glyph>
<glyph name="five" format="1">
  <advance width="1150"/>
  <unicode hex="0035"/>
  <outline>
    <contour>
      <point x="245" y="-38" type="curve" smooth="yes"/>
      <point x="408" y="-38"/>
      <point x="558" y="-21"/>
      <point x="680" y="7" type="curve" smooth="yes"/>
      <point x="850" y="46"/>
      <point x="960" y="130"/>
      <point x="960" y="199" type="curve" smooth="yes"/>
      <point x="960" y="319"/>
      <point x="865" y="384"/>
      <point x="582" y="400" type="curve" smooth="yes"/>
      <point x="496" y="405"/>
      <point x="392" y="408"/>
      <point x="269" y="405" type="curve"/>
      <point x="253" y="408"/>
      <point x="250" y="415"/>
      <point x="251" y="424" type="curve"/>
      <point x="252" y="440"/>
      <point x="261" y="445"/>
      <point x="275" y="446" type="curve" smooth="yes"/>
      <point x="368" y="453"/>
      <point x="664" y="458"/>
      <point x="825" y="464" type="curve"/>
      <point x="854" y="468"/>
      <point x="871" y="488"/>
      <point x="888" y="527" type="curve" smooth="yes"/>
      <point x="897" y="547"/>
      <point x="907" y="571"/>
      <point x="917" y="592" type="curve" smooth="yes"/>
      <point x="926" y="610"/>
      <point x="915" y="628"/>
      <point x="898" y="627" type="curve" smooth="yes"/>
      <point x="697" y="615"/>
      <point x="536" y="620"/>
      <point x="343" y="592" type="curve" smooth="yes"/>
      <point x="308" y="587"/>
      <point x="285" y="576"/>
      <point x="275" y="556" type="curve" smooth="yes"/>
      <point x="256" y="517"/>
      <point x="207" y="428"/>
      <point x="207" y="278" type="curve" smooth="yes"/>
      <point x="207" y="265"/>
      <point x="213" y="256"/>
      <point x="231" y="245" type="curve"/>
      <point x="408" y="212"/>
      <point x="477" y="182"/>
      <point x="477" y="126" type="curve" smooth="yes"/>
      <point x="477" y="65"/>
      <point x="402" y="-7"/>
      <point x="244" y="-7" type="curve" smooth="yes"/>
      <point x="232" y="-7"/>
      <point x="208" y="-16"/>
      <point x="208" y="-26" type="curve" smooth="yes"/>
      <point x="208" y="-35"/>
      <point x="230" y="-38"/>
    </contour>
  </outline>
</glyph>
<glyph name="six" format="1">
  <advance width="1300"/>
  <unicode hex="0036"/>
  <outline>
    <contour>
      <point x="641" y="-16" type="curve" smooth="yes"/>
      <point x="926" y="-16"/>
      <point x="1244" y="65"/>
      <point x="1244" y="190" type="curve" smooth="yes"/>
      <point x="1244" y="306"/>
      <point x="1093" y="389"/>
      <point x="925" y="389" type="curve" smooth="yes"/>
      <point x="835" y="389"/>
      <point x="694" y="353"/>
      <point x="625" y="299" type="curve" smooth="yes"/>
      <point x="608" y="286"/>
      <point x="602" y="279"/>
      <point x="591" y="263" type="curve" smooth="yes"/>
      <point x="583" y="252"/>
      <point x="584" y="237"/>
      <point x="601" y="245" type="curve" smooth="yes"/>
      <point x="621" y="255"/>
      <point x="642" y="260"/>
      <point x="677" y="260" type="curve" smooth="yes"/>
      <point x="730" y="260"/>
      <point x="768" y="203"/>
      <point x="768" y="142" type="curve" smooth="yes"/>
      <point x="768" y="59"/>
      <point x="719" y="21"/>
      <point x="665" y="22" type="curve" smooth="yes"/>
      <point x="599" y="23"/>
      <point x="524" y="84"/>
      <point x="522" y="195" type="curve" smooth="yes"/>
      <point x="520" y="299"/>
      <point x="581" y="408"/>
      <point x="614" y="456" type="curve" smooth="yes"/>
      <point x="664" y="529"/>
      <point x="726" y="575"/>
      <point x="816" y="614" type="curve" smooth="yes"/>
      <point x="823" y="617"/>
      <point x="836" y="622"/>
      <point x="842" y="634" type="curve" smooth="yes"/>
      <point x="844" y="638"/>
      <point x="836" y="642"/>
      <point x="824" y="641" type="curve" smooth="yes"/>
      <point x="665" y="622"/>
      <point x="546" y="588"/>
      <point x="428" y="543" type="curve" smooth="yes"/>
      <point x="198" y="455"/>
      <point x="38" y="328"/>
      <point x="38" y="193" type="curve" smooth="yes"/>
      <point x="38" y="53"/>
      <point x="338" y="-16"/>
    </contour>
  </outline>
</glyph>
<glyph name="seven" format="1">
  <advance width="1150"/>
  <unicode hex="0037"/>
  <outline>
    <contour>
      <point x="501" y="-32" type="curve" smooth="yes"/>
      <point x="505" y="-32"/>
      <point x="510" y="-16"/>
      <point x="520" y="-5" type="curve" smooth="yes"/>
      <point x="1041" y="538" type="line" smooth="yes"/>
      <point x="1056" y="553"/>
      <point x="1079" y="592"/>
      <point x="1079" y="608" type="curve" smooth="yes"/>
      <point x="1079" y="613"/>
      <point x="1076" y="621"/>
      <point x="1073" y="621" type="curve" smooth="yes"/>
      <point x="1047" y="621"/>
      <point x="765" y="616"/>
      <point x="413" y="616" type="curve" smooth="yes"/>
      <point x="350" y="616"/>
      <point x="320" y="617"/>
      <point x="280" y="617" type="curve" smooth="yes"/>
      <point x="224" y="617"/>
      <point x="171" y="626"/>
      <point x="167" y="626" type="curve" smooth="yes"/>
      <point x="158" y="626"/>
      <point x="140" y="617"/>
      <point x="138" y="588" type="curve" smooth="yes"/>
      <point x="132" y="502"/>
      <point x="131" y="467"/>
      <point x="110" y="367" type="curve"/>
      <point x="107" y="350"/>
      <point x="99" y="318"/>
      <point x="99" y="291" type="curve" smooth="yes"/>
      <point x="99" y="276"/>
      <point x="82" y="244"/>
      <point x="100" y="244" type="curve" smooth="yes"/>
      <point x="104" y="244"/>
      <point x="128" y="262"/>
      <point x="132" y="269" type="curve" smooth="yes"/>
      <point x="153" y="306"/>
      <point x="177" y="315"/>
      <point x="209" y="315" type="curve" smooth="yes"/>
      <point x="779" y="315" type="line"/>
      <point x="824" y="371" type="line"/>
      <point x="441" y="55" type="line" smooth="yes"/>
      <point x="425" y="41"/>
      <point x="420" y="18"/>
      <point x="420" y="14" type="curve" smooth="yes"/>
      <point x="420" y="-15"/>
      <point x="466" y="-32"/>
    </contour>
  </outline>
</glyph>
<glyph name="eight" format="1">
  <advance width="1150"/>
  <unicode hex="0038"/>
  <outline>
    <contour>
      <point x="544" y="-14" type="curve" smooth="yes"/>
      <point x="797" y="-14"/>
      <point x="1052" y="60"/>
      <point x="1052" y="164" type="curve" smooth="yes"/>
      <point x="1052" y="241"/>
      <point x="919" y="333"/>
      <point x="837" y="385" type="curve" smooth="yes"/>
      <point x="826" y="392"/>
      <point x="820" y="406"/>
      <point x="843" y="406" type="curve" smooth="yes"/>
      <point x="864" y="406"/>
      <point x="889" y="410"/>
      <point x="912" y="418" type="curve" smooth="yes"/>
      <point x="960" y="435"/>
      <point x="1006" y="462"/>
      <point x="1006" y="496" type="curve" smooth="yes"/>
      <point x="1006" y="577"/>
      <point x="802" y="630"/>
      <point x="595" y="630" type="curve" smooth="yes"/>
      <point x="371" y="630"/>
      <point x="136" y="567"/>
      <point x="136" y="489" type="curve" smooth="yes"/>
      <point x="136" y="404"/>
      <point x="273" y="311"/>
      <point x="335" y="256" type="curve" smooth="yes"/>
      <point x="344" y="248"/>
      <point x="350" y="243"/>
      <point x="338" y="243" type="curve" smooth="yes"/>
      <point x="247" y="243"/>
      <point x="98" y="229"/>
      <point x="98" y="141" type="curve" smooth="yes"/>
      <point x="98" y="49"/>
      <point x="312" y="-14"/>
    </contour>
    <contour>
      <point x="558" y="15" type="curve" smooth="yes"/>
      <point x="478" y="15"/>
      <point x="379" y="163"/>
      <point x="379" y="202" type="curve" smooth="yes"/>
      <point x="379" y="205"/>
      <point x="379" y="207"/>
      <point x="381" y="209" type="curve" smooth="yes"/>
      <point x="382" y="210"/>
      <point x="384" y="211"/>
      <point x="386" y="211" type="curve" smooth="yes"/>
      <point x="390" y="211"/>
      <point x="394" y="210"/>
      <point x="400" y="208" type="curve"/>
      <point x="439" y="195"/>
      <point x="627" y="70"/>
      <point x="627" y="50" type="curve" smooth="yes"/>
      <point x="627" y="31"/>
      <point x="598" y="15"/>
    </contour>
    <contour>
      <point x="786" y="414" type="curve"/>
      <point x="784" y="413"/>
      <point x="780" y="414"/>
      <point x="778" y="415" type="curve"/>
      <point x="738" y="431"/>
      <point x="500" y="556"/>
      <point x="500" y="578" type="curve" smooth="yes"/>
      <point x="500" y="594"/>
      <point x="531" y="606"/>
      <point x="557" y="606" type="curve" smooth="yes"/>
      <point x="610" y="606"/>
      <point x="794" y="468"/>
      <point x="794" y="425" type="curve" smooth="yes"/>
      <point x="794" y="420"/>
      <point x="791" y="416"/>
    </contour>
  </outline>
</glyph>
<glyph name="question" format="1">
  <advance width="528"/>
  <unicode hex="003F"/>
  <outline>
    <contour>
      <point x="196" y="131"/>
      <point x="207" y="144"/>
      <point x="207" y="151" type="curve" smooth="yes"/>
      <point x="207" y="172"/>
      <point x="211" y="185"/>
      <point x="239" y="197" type="curve" smooth="yes"/>
      <point x="271" y="211"/>
      <point x="315" y="224"/>
      <point x="359" y="239" type="curve"/>
      <point x="410" y="254"/>
      <point x="463" y="286"/>
      <point x="463" y="353" type="curve" smooth="yes"/>
      <point x="463" y="417"/>
      <point x="408" y="526"/>
      <point x="325" y="598" type="curve" smooth="yes"/>
      <point x="277" y="639"/>
      <point x="215" y="661"/>
      <point x="166" y="661" type="curve" smooth="yes"/>
      <point x="149" y="661"/>
      <point x="126" y="644"/>
      <point x="126" y="625" type="curve" smooth="yes"/>
      <point x="126" y="598"/>
      <point x="147" y="569"/>
      <point x="168" y="569" type="curve" smooth="yes"/>
      <point x="178" y="569"/>
      <point x="185" y="570"/>
      <point x="192" y="571" type="curve" smooth="yes"/>
      <point x="199" y="572"/>
      <point x="206" y="573"/>
      <point x="215" y="573" type="curve" smooth="yes"/>
      <point x="303" y="573"/>
      <point x="346" y="552"/>
      <point x="346" y="525" type="curve" smooth="yes"/>
      <point x="346" y="512"/>
      <point x="293" y="506"/>
      <point x="255" y="495" type="curve" smooth="yes"/>
      <point x="142" y="463"/>
      <point x="106" y="410"/>
      <point x="106" y="358" type="curve" smooth="yes"/>
      <point x="106" y="290"/>
      <point x="140" y="217"/>
      <point x="147" y="185" type="curve" smooth="yes"/>
      <point x="152" y="160"/>
      <point x="166" y="131"/>
      <point x="186" y="131" type="curve" smooth="yes"/>
    </contour>
    <contour>
      <point x="320" y="-14"/>
      <point x="369" y="-2"/>
      <point x="369" y="36" type="curve" smooth="yes"/>
      <point x="369" y="75"/>
      <point x="320" y="87"/>
      <point x="218" y="87" type="curve" smooth="yes"/>
      <point x="119" y="87"/>
      <point x="70" y="75"/>
      <point x="70" y="36" type="curve" smooth="yes"/>
      <point x="70" y="-2"/>
      <point x="119" y="-14"/>
      <point x="218" y="-14" type="curve" smooth="yes"/>
    </contour>
  </outline>
</glyph>
<glyph name="at" format="1">
  <advance width="1304"/>
  <unicode hex="0040"/>
  <outline>
    <contour>
      <point x="866" y="-131"/>
      <point x="1129" y="-41"/>
      <point x="1129" y="-17" type="curve" smooth="yes"/>
      <point x="1129" y="-8"/>
      <point x="1120" y="-4"/>
      <point x="1103" y="-4" type="curve" smooth="yes"/>
      <point x="1094" y="-4"/>
      <point x="1081" y="-9"/>
      <point x="1070" y="-14" type="curve" smooth="yes"/>
      <point x="973" y="-56"/>
      <point x="797" y="-91"/>
      <point x="671" y="-91" type="curve" smooth="yes"/>
      <point x="364" y="-91"/>
      <point x="100" y="32"/>
      <point x="100" y="191" type="curve" smooth="yes"/>
      <point x="100" y="360"/>
      <point x="378" y="467"/>
      <point x="693" y="467" type="curve" smooth="yes"/>
      <point x="970" y="467"/>
      <point x="1207" y="359"/>
      <point x="1207" y="220" type="curve" smooth="yes"/>
      <point x="1207" y="137"/>
      <point x="1143" y="84"/>
      <point x="1073" y="84" type="curve" smooth="yes"/>
      <point x="1059" y="84"/>
      <point x="1055" y="98"/>
      <point x="1055" y="113" type="curve" smooth="yes"/>
      <point x="1055" y="122"/>
      <point x="1057" y="131"/>
      <point x="1058" y="140" type="curve"/>
      <point x="1079" y="272" type="line" smooth="yes"/>
      <point x="1082" y="288"/>
      <point x="1092" y="328"/>
      <point x="1101" y="352" type="curve"/>
      <point x="1123" y="356"/>
      <point x="997" y="360"/>
      <point x="968" y="360" type="curve" smooth="yes"/>
      <point x="894" y="360"/>
      <point x="858" y="341"/>
      <point x="784" y="341" type="curve" smooth="yes"/>
      <point x="777" y="341"/>
      <point x="769" y="342"/>
      <point x="741" y="347" type="curve" smooth="yes"/>
      <point x="719" y="351"/>
      <point x="658" y="355"/>
      <point x="621" y="355" type="curve" smooth="yes"/>
      <point x="416" y="355"/>
      <point x="229" y="277"/>
      <point x="229" y="156" type="curve" smooth="yes"/>
      <point x="229" y="86"/>
      <point x="337" y="47"/>
      <point x="476" y="47" type="curve" smooth="yes"/>
      <point x="608" y="47"/>
      <point x="699" y="84"/>
      <point x="719" y="84" type="curve" smooth="yes"/>
      <point x="780" y="84"/>
      <point x="798" y="47"/>
      <point x="1047" y="47" type="curve" smooth="yes"/>
      <point x="1154" y="47"/>
      <point x="1254" y="118"/>
      <point x="1254" y="235" type="curve" smooth="yes"/>
      <point x="1254" y="384"/>
      <point x="1001" y="507"/>
      <point x="725" y="507" type="curve" smooth="yes"/>
      <point x="371" y="507"/>
      <point x="50" y="395"/>
      <point x="50" y="181" type="curve" smooth="yes"/>
      <point x="50" y="-3"/>
      <point x="336" y="-131"/>
      <point x="666" y="-131" type="curve" smooth="yes"/>
    </contour>
    <contour>
      <point x="601" y="81"/>
      <point x="556" y="103"/>
      <point x="556" y="175" type="curve" smooth="yes"/>
      <point x="556" y="273"/>
      <point x="617" y="325"/>
      <point x="674" y="325" type="curve" smooth="yes"/>
      <point x="717" y="325"/>
      <point x="746" y="304"/>
      <point x="746" y="267" type="curve" smooth="yes"/>
      <point x="746" y="263"/>
      <point x="746" y="259"/>
      <point x="745" y="255" type="curve"/>
      <point x="726" y="152" type="line" smooth="yes"/>
      <point x="720" y="121"/>
      <point x="711" y="111"/>
      <point x="699" y="103" type="curve" smooth="yes"/>
      <point x="679" y="89"/>
      <point x="663" y="81"/>
      <point x="639" y="81" type="curve" smooth="yes"/>
    </contour>
  </outline>
</glyph>
<glyph name="A" format="1">
  <advance width="1121"/>
  <unicode hex="0041"/>
  <outline>
    <contour>
      <point x="27" y="-5" type="curve" smooth="yes"/>
      <point x="60" y="-5"/>
      <point x="103" y="1"/>
      <point x="147" y="1" type="curve" smooth="yes"/>
      <point x="184" y="1"/>
      <point x="220" y="-1"/>
      <point x="238" y="-1" type="curve" smooth="yes"/>
      <point x="255" y="-1"/>
      <point x="267" y="2"/>
      <point x="267" y="10" type="curve" smooth="yes"/>
      <point x="267" y="19"/>
      <point x="257" y="24"/>
      <point x="234" y="30" type="curve" smooth="yes"/>
      <point x="202" y="38"/>
      <point x="176" y="58"/>
      <point x="176" y="87" type="curve" smooth="yes"/>
      <point x="176" y="100"/>
      <point x="208" y="205"/>
      <point x="217" y="231" type="curve" smooth="yes"/>
      <point x="222" y="245"/>
      <point x="228" y="249"/>
      <point x="234" y="249" type="curve" smooth="yes"/>
      <point x="423" y="249" type="line" smooth="yes"/>
      <point x="441" y="249"/>
      <point x="447" y="248"/>
      <point x="450" y="238" type="curve" smooth="yes"/>
      <point x="465" y="188"/>
      <point x="489" y="105"/>
      <point x="489" y="76" type="curve" smooth="yes"/>
      <point x="489" y="54"/>
      <point x="472" y="38"/>
      <point x="428" y="31" type="curve" smooth="yes"/>
      <point x="410" y="28"/>
      <point x="395" y="21"/>
      <point x="395" y="12" type="curve" smooth="yes"/>
      <point x="395" y="4"/>
      <point x="424" y="0"/>
      <point x="465" y="0" type="curve" smooth="yes"/>
      <point x="523" y="0"/>
      <point x="625" y="1"/>
      <point x="719" y="1" type="curve" smooth="yes"/>
      <point x="828" y="1"/>
      <point x="987" y="-5"/>
      <point x="1056" y="-5" type="curve" smooth="yes"/>
      <point x="1096" y="-5"/>
      <point x="1126" y="-3"/>
      <point x="1126" y="5" type="curve" smooth="yes"/>
      <point x="1126" y="14"/>
      <point x="1116" y="24"/>
      <point x="1093" y="28" type="curve" smooth="yes"/>
      <point x="1053" y="35"/>
      <point x="1020" y="48"/>
      <point x="992" y="128" type="curve" smooth="yes"/>
      <point x="959" y="223"/>
      <point x="880" y="459"/>
      <point x="832" y="609" type="curve" smooth="yes"/>
      <point x="812" y="671"/>
      <point x="784" y="678"/>
      <point x="762" y="684" type="curve" smooth="yes"/>
      <point x="755" y="686"/>
      <point x="733" y="687"/>
      <point x="725" y="685" type="curve" smooth="yes"/>
      <point x="696" y="679"/>
      <point x="673" y="659"/>
      <point x="585" y="651" type="curve" smooth="yes"/>
      <point x="496" y="643"/>
      <point x="407" y="640"/>
      <point x="318" y="636" type="curve"/>
      <point x="316" y="615"/>
      <point x="311" y="597"/>
      <point x="304" y="578" type="curve" smooth="yes"/>
      <point x="236" y="393"/>
      <point x="192" y="279"/>
      <point x="117" y="108" type="curve" smooth="yes"/>
      <point x="95" y="58"/>
      <point x="65" y="41"/>
      <point x="31" y="31" type="curve" smooth="yes"/>
      <point x="9" y="24"/>
      <point x="-2" y="17"/>
      <point x="-2" y="8" type="curve" smooth="yes"/>
      <point x="-2" y="0"/>
      <point x="10" y="-5"/>
    </contour>
    <contour>
      <point x="261" y="282" type="line" smooth="yes"/>
      <point x="248" y="282"/>
      <point x="240" y="282"/>
      <point x="240" y="289" type="curve" smooth="yes"/>
      <point x="240" y="291"/>
      <point x="241" y="294"/>
      <point x="242" y="297" type="curve"/>
      <point x="333" y="542" type="line" smooth="yes"/>
      <point x="337" y="553"/>
      <point x="339" y="559"/>
      <point x="341" y="559" type="curve" smooth="yes"/>
      <point x="344" y="559"/>
      <point x="346" y="553"/>
      <point x="350" y="541" type="curve" smooth="yes"/>
      <point x="428" y="297" type="line"/>
      <point x="429" y="293"/>
      <point x="430" y="289"/>
      <point x="430" y="287" type="curve" smooth="yes"/>
      <point x="430" y="282"/>
      <point x="426" y="282"/>
      <point x="416" y="282" type="curve" smooth="yes"/>
    </contour>
  </outline>
</glyph>
<glyph name="B" format="1">
  <advance width="1384"/>
  <unicode hex="0042"/>
  <outline>
    <contour>
      <point x="51" y="-5" type="curve" smooth="yes"/>
      <point x="236" y="-5"/>
      <point x="301" y="0"/>
      <point x="467" y="0" type="curve" smooth="yes"/>
      <point x="595" y="0"/>
      <point x="715" y="-4"/>
      <point x="772" y="-4" type="curve" smooth="yes"/>
      <point x="930" y="-4"/>
      <point x="1039" y="9"/>
      <point x="1127" y="30" type="curve" smooth="yes"/>
      <point x="1212" y="51"/>
      <point x="1344" y="84"/>
      <point x="1344" y="194" type="curve" smooth="yes"/>
      <point x="1344" y="310"/>
      <point x="1173" y="339"/>
      <point x="1047" y="359" type="curve" smooth="yes"/>
      <point x="1035" y="361"/>
      <point x="1037" y="367"/>
      <point x="1047" y="369" type="curve" smooth="yes"/>
      <point x="1116" y="382"/>
      <point x="1143" y="391"/>
      <point x="1187" y="412" type="curve" smooth="yes"/>
      <point x="1219" y="427"/>
      <point x="1258" y="463"/>
      <point x="1258" y="508" type="curve" smooth="yes"/>
      <point x="1258" y="617"/>
      <point x="1100" y="657"/>
      <point x="774" y="657" type="curve" smooth="yes"/>
      <point x="581" y="657"/>
      <point x="531" y="652"/>
      <point x="404" y="652" type="curve" smooth="yes"/>
      <point x="268" y="652"/>
      <point x="238" y="653"/>
      <point x="59" y="653" type="curve" smooth="yes"/>
      <point x="42" y="653"/>
      <point x="30" y="650"/>
      <point x="30" y="642" type="curve" smooth="yes"/>
      <point x="30" y="633"/>
      <point x="40" y="624"/>
      <point x="63" y="622" type="curve" smooth="yes"/>
      <point x="112" y="618"/>
      <point x="130" y="597"/>
      <point x="130" y="549" type="curve" smooth="yes"/>
      <point x="130" y="99" type="line" smooth="yes"/>
      <point x="130" y="51"/>
      <point x="102" y="33"/>
      <point x="52" y="24" type="curve" smooth="yes"/>
      <point x="29" y="20"/>
      <point x="19" y="15"/>
      <point x="19" y="6" type="curve" smooth="yes"/>
      <point x="19" y="-2"/>
      <point x="31" y="-5"/>
    </contour>
    <contour>
      <point x="691" y="37" type="curve" smooth="yes"/>
      <point x="640" y="37"/>
      <point x="612" y="52"/>
      <point x="612" y="108" type="curve" smooth="yes"/>
      <point x="612" y="307" type="line" smooth="yes"/>
      <point x="612" y="320"/>
      <point x="626" y="343"/>
      <point x="669" y="343" type="curve" smooth="yes"/>
      <point x="729" y="343"/>
      <point x="765" y="328"/>
      <point x="783" y="318" type="curve" smooth="yes"/>
      <point x="810" y="303"/>
      <point x="857" y="266"/>
      <point x="857" y="189" type="curve" smooth="yes"/>
      <point x="857" y="103"/>
      <point x="779" y="37"/>
    </contour>
    <contour>
      <point x="658" y="371" type="curve" smooth="yes"/>
      <point x="642" y="371"/>
      <point x="612" y="373"/>
      <point x="612" y="408" type="curve" smooth="yes"/>
      <point x="612" y="582" type="line" smooth="yes"/>
      <point x="612" y="612"/>
      <point x="623" y="627"/>
      <point x="678" y="627" type="curve" smooth="yes"/>
      <point x="801" y="627"/>
      <point x="824" y="552"/>
      <point x="824" y="495" type="curve" smooth="yes"/>
      <point x="824" y="437"/>
      <point x="793" y="408"/>
      <point x="779" y="400" type="curve" smooth="yes"/>
      <point x="738" y="377"/>
      <point x="694" y="371"/>
    </contour>
  </outline>
</glyph>
<glyph name="D" format="1">
  <advance width="1557"/>
  <unicode hex="0044"/>
  <outline>
    <contour>
      <point x="771" y="-7" type="curve" smooth="yes"/>
      <point x="1185" y="-7"/>
      <point x="1522" y="150"/>
      <point x="1522" y="342" type="curve" smooth="yes"/>
      <point x="1522" y="517"/>
      <point x="1291" y="659"/>
      <point x="703" y="659" type="curve" smooth="yes"/>
      <point x="645" y="659"/>
      <point x="426" y="651"/>
      <point x="333" y="651" type="curve" smooth="yes"/>
      <point x="228" y="651"/>
      <point x="202" y="653"/>
      <point x="92" y="653" type="curve" smooth="yes"/>
      <point x="55" y="653"/>
      <point x="29" y="649"/>
      <point x="29" y="640" type="curve" smooth="yes"/>
      <point x="29" y="629"/>
      <point x="39" y="626"/>
      <point x="62" y="622" type="curve" smooth="yes"/>
      <point x="112" y="613"/>
      <point x="129" y="597"/>
      <point x="129" y="549" type="curve" smooth="yes"/>
      <point x="129" y="99" type="line" smooth="yes"/>
      <point x="129" y="51"/>
      <point x="112" y="33"/>
      <point x="62" y="24" type="curve" smooth="yes"/>
      <point x="39" y="20"/>
      <point x="29" y="19"/>
      <point x="29" y="8" type="curve" smooth="yes"/>
      <point x="29" y="-2"/>
      <point x="55" y="-5"/>
      <point x="92" y="-5" type="curve" smooth="yes"/>
      <point x="207" y="-5"/>
      <point x="233" y="0"/>
      <point x="320" y="0" type="curve" smooth="yes"/>
      <point x="491" y="0"/>
      <point x="727" y="-7"/>
    </contour>
    <contour>
      <point x="762" y="28" type="curve" smooth="yes"/>
      <point x="687" y="28"/>
      <point x="612" y="40"/>
      <point x="612" y="121" type="curve" smooth="yes"/>
      <point x="612" y="567" type="line" smooth="yes"/>
      <point x="612" y="627"/>
      <point x="661" y="628"/>
      <point x="748" y="628" type="curve" smooth="yes"/>
      <point x="885" y="628"/>
      <point x="1027" y="517"/>
      <point x="1027" y="325" type="curve" smooth="yes"/>
      <point x="1027" y="151"/>
      <point x="918" y="28"/>
    </contour>
  </outline>
</glyph>
<glyph name="F" format="1">
  <advance width="922"/>
  <unicode hex="0046"/>
  <outline>
    <contour>
      <point x="108" y="-5" type="curve" smooth="yes"/>
      <point x="239" y="-5"/>
      <point x="295" y="2"/>
      <point x="413" y="2" type="curve" smooth="yes"/>
      <point x="506" y="2"/>
      <point x="521" y="-5"/>
      <point x="652" y="-5" type="curve" smooth="yes"/>
      <point x="694" y="-5"/>
      <point x="722" y="-2"/>
      <point x="722" y="6" type="curve" smooth="yes"/>
      <point x="722" y="15"/>
      <point x="712" y="20"/>
      <point x="689" y="24" type="curve" smooth="yes"/>
      <point x="639" y="33"/>
      <point x="625" y="58"/>
      <point x="623" y="101" type="curve" smooth="yes"/>
      <point x="620" y="167"/>
      <point x="620" y="231"/>
      <point x="620" y="292" type="curve" smooth="yes"/>
      <point x="620" y="309"/>
      <point x="631" y="316"/>
      <point x="644" y="317" type="curve" smooth="yes"/>
      <point x="665" y="319"/>
      <point x="686" y="319"/>
      <point x="709" y="319" type="curve" smooth="yes"/>
      <point x="725" y="319"/>
      <point x="742" y="318"/>
      <point x="759" y="318" type="curve" smooth="yes"/>
      <point x="775" y="318"/>
      <point x="797" y="309"/>
      <point x="806" y="278" type="curve" smooth="yes"/>
      <point x="808" y="271"/>
      <point x="816" y="255"/>
      <point x="829" y="255" type="curve" smooth="yes"/>
      <point x="837" y="255"/>
      <point x="838" y="263"/>
      <point x="838" y="272" type="curve"/>
      <point x="836" y="301"/>
      <point x="835" y="320"/>
      <point x="835" y="340" type="curve" smooth="yes"/>
      <point x="835" y="356"/>
      <point x="835" y="372"/>
      <point x="838" y="395" type="curve" smooth="yes"/>
      <point x="839" y="404"/>
      <point x="830" y="411"/>
      <point x="825" y="411" type="curve" smooth="yes"/>
      <point x="820" y="411"/>
      <point x="809" y="399"/>
      <point x="807" y="394" type="curve" smooth="yes"/>
      <point x="798" y="371"/>
      <point x="775" y="353"/>
      <point x="746" y="353" type="curve" smooth="yes"/>
      <point x="722" y="353"/>
      <point x="672" y="350"/>
      <point x="630" y="350" type="curve" smooth="yes"/>
      <point x="621" y="350"/>
      <point x="620" y="361"/>
      <point x="620" y="372" type="curve"/>
      <point x="619" y="396"/>
      <point x="619" y="433"/>
      <point x="619" y="467" type="curve" smooth="yes"/>
      <point x="619" y="502"/>
      <point x="619" y="542"/>
      <point x="620" y="567" type="curve" smooth="yes"/>
      <point x="621" y="593"/>
      <point x="623" y="617"/>
      <point x="654" y="617" type="curve" smooth="yes"/>
      <point x="781" y="617" type="line" smooth="yes"/>
      <point x="806" y="617"/>
      <point x="829" y="611"/>
      <point x="848" y="590" type="curve" smooth="yes"/>
      <point x="857" y="580"/>
      <point x="865" y="563"/>
      <point x="871" y="541" type="curve" smooth="yes"/>
      <point x="873" y="534"/>
      <point x="879" y="529"/>
      <point x="886" y="529" type="curve" smooth="yes"/>
      <point x="892" y="529"/>
      <point x="895" y="538"/>
      <point x="895" y="550" type="curve" smooth="yes"/>
      <point x="895" y="564"/>
      <point x="893" y="628"/>
      <point x="890" y="651" type="curve"/>
      <point x="888" y="658"/>
      <point x="869" y="660"/>
      <point x="856" y="660" type="curve" smooth="yes"/>
      <point x="810" y="660"/>
      <point x="749" y="650"/>
      <point x="667" y="650" type="curve"/>
      <point x="589" y="650"/>
      <point x="501" y="650"/>
      <point x="426" y="650" type="curve" smooth="yes"/>
      <point x="295" y="650"/>
      <point x="238" y="653"/>
      <point x="98" y="653" type="curve" smooth="yes"/>
      <point x="66" y="653"/>
      <point x="43" y="650"/>
      <point x="43" y="642" type="curve" smooth="yes"/>
      <point x="43" y="633"/>
      <point x="53" y="626"/>
      <point x="76" y="622" type="curve" smooth="yes"/>
      <point x="126" y="613"/>
      <point x="137" y="582"/>
      <point x="137" y="522" type="curve" smooth="yes"/>
      <point x="137" y="100" type="line" smooth="yes"/>
      <point x="137" y="51"/>
      <point x="120" y="33"/>
      <point x="70" y="24" type="curve" smooth="yes"/>
      <point x="61" y="20"/>
      <point x="37" y="15"/>
      <point x="37" y="6" type="curve" smooth="yes"/>
      <point x="37" y="-2"/>
      <point x="66" y="-5"/>
    </contour>
  </outline>
</glyph>
<glyph name="H" format="1">
  <advance width="1620"/>
  <unicode hex="0048"/>
  <outline>
    <contour>
      <point x="66" y="-5" type="curve" smooth="yes"/>
      <point x="216" y="-5"/>
      <point x="252" y="0"/>
      <point x="372" y="0" type="curve" smooth="yes"/>
      <point x="500" y="0"/>
      <point x="546" y="-5"/>
      <point x="696" y="-5" type="curve" smooth="yes"/>
      <point x="713" y="-5"/>
      <point x="725" y="0"/>
      <point x="725" y="8" type="curve" smooth="yes"/>
      <point x="725" y="17"/>
      <point x="716" y="20"/>
      <point x="693" y="24" type="curve" smooth="yes"/>
      <point x="647" y="32"/>
      <point x="613" y="64"/>
      <point x="613" y="106" type="curve" smooth="yes"/>
      <point x="613" y="296" type="line" smooth="yes"/>
      <point x="613" y="304"/>
      <point x="613" y="307"/>
      <point x="618" y="307" type="curve" smooth="yes"/>
      <point x="1000" y="307" type="line" smooth="yes"/>
      <point x="1005" y="307"/>
      <point x="1005" y="304"/>
      <point x="1005" y="296" type="curve" smooth="yes"/>
      <point x="1005" y="106" type="line" smooth="yes"/>
      <point x="1005" y="57"/>
      <point x="988" y="33"/>
      <point x="936" y="24" type="curve" smooth="yes"/>
      <point x="913" y="20"/>
      <point x="904" y="17"/>
      <point x="904" y="8" type="curve" smooth="yes"/>
      <point x="904" y="0"/>
      <point x="916" y="-5"/>
      <point x="933" y="-5" type="curve" smooth="yes"/>
      <point x="1092" y="-5"/>
      <point x="1123" y="0"/>
      <point x="1246" y="0" type="curve" smooth="yes"/>
      <point x="1366" y="0"/>
      <point x="1392" y="-5"/>
      <point x="1551" y="-5" type="curve" smooth="yes"/>
      <point x="1568" y="-5"/>
      <point x="1580" y="0"/>
      <point x="1580" y="8" type="curve" smooth="yes"/>
      <point x="1580" y="17"/>
      <point x="1571" y="20"/>
      <point x="1548" y="24" type="curve" smooth="yes"/>
      <point x="1498" y="33"/>
      <point x="1487" y="51"/>
      <point x="1487" y="99" type="curve" smooth="yes"/>
      <point x="1487" y="551" type="line" smooth="yes"/>
      <point x="1487" y="597"/>
      <point x="1490" y="613"/>
      <point x="1540" y="622" type="curve" smooth="yes"/>
      <point x="1563" y="626"/>
      <point x="1573" y="631"/>
      <point x="1573" y="640" type="curve" smooth="yes"/>
      <point x="1573" y="648"/>
      <point x="1564" y="653"/>
      <point x="1544" y="653" type="curve" smooth="yes"/>
      <point x="1384" y="653"/>
      <point x="1381" y="650"/>
      <point x="1275" y="650" type="curve" smooth="yes"/>
      <point x="1142" y="650"/>
      <point x="1093" y="653"/>
      <point x="933" y="653" type="curve" smooth="yes"/>
      <point x="913" y="653"/>
      <point x="906" y="648"/>
      <point x="906" y="640" type="curve" smooth="yes"/>
      <point x="906" y="631"/>
      <point x="916" y="626"/>
      <point x="937" y="622" type="curve" smooth="yes"/>
      <point x="987" y="612"/>
      <point x="1005" y="590"/>
      <point x="1005" y="551" type="curve" smooth="yes"/>
      <point x="1005" y="354" type="line" smooth="yes"/>
      <point x="1005" y="346"/>
      <point x="997" y="345"/>
      <point x="991" y="345" type="curve" smooth="yes"/>
      <point x="627" y="345" type="line" smooth="yes"/>
      <point x="621" y="345"/>
      <point x="613" y="346"/>
      <point x="613" y="354" type="curve" smooth="yes"/>
      <point x="613" y="551" type="line" smooth="yes"/>
      <point x="613" y="590"/>
      <point x="631" y="613"/>
      <point x="681" y="622" type="curve" smooth="yes"/>
      <point x="704" y="626"/>
      <point x="714" y="631"/>
      <point x="714" y="640" type="curve" smooth="yes"/>
      <point x="714" y="648"/>
      <point x="705" y="653"/>
      <point x="685" y="653" type="curve" smooth="yes"/>
      <point x="531" y="653"/>
      <point x="498" y="650"/>
      <point x="374" y="650" type="curve" smooth="yes"/>
      <point x="257" y="650"/>
      <point x="230" y="653"/>
      <point x="73" y="653" type="curve" smooth="yes"/>
      <point x="53" y="653"/>
      <point x="44" y="648"/>
      <point x="44" y="640" type="curve" smooth="yes"/>
      <point x="44" y="631"/>
      <point x="54" y="626"/>
      <point x="77" y="622" type="curve" smooth="yes"/>
      <point x="127" y="613"/>
      <point x="130" y="597"/>
      <point x="130" y="551" type="curve" smooth="yes"/>
      <point x="130" y="99" type="line" smooth="yes"/>
      <point x="130" y="51"/>
      <point x="119" y="33"/>
      <point x="69" y="24" type="curve" smooth="yes"/>
      <point x="46" y="20"/>
      <point x="37" y="17"/>
      <point x="37" y="8" type="curve" smooth="yes"/>
      <point x="37" y="0"/>
      <point x="49" y="-5"/>
    </contour>
  </outline>
</glyph>
<glyph name="K" format="1">
  <advance width="1575"/>
  <unicode hex="004B"/>
  <outline>
    <contour>
      <point x="102" y="-5" type="curve" smooth="yes"/>
      <point x="233" y="-5"/>
      <point x="289" y="2"/>
      <point x="408" y="2" type="curve" smooth="yes"/>
      <point x="500" y="2"/>
      <point x="515" y="-5"/>
      <point x="646" y="-5" type="curve" smooth="yes"/>
      <point x="688" y="-5"/>
      <point x="717" y="-2"/>
      <point x="717" y="6" type="curve" smooth="yes"/>
      <point x="717" y="15"/>
      <point x="707" y="20"/>
      <point x="684" y="24" type="curve" smooth="yes"/>
      <point x="634" y="33"/>
      <point x="622" y="67"/>
      <point x="620" y="110" type="curve" smooth="yes"/>
      <point x="617" y="190"/>
      <point x="615" y="239"/>
      <point x="615" y="302" type="curve" smooth="yes"/>
      <point x="615" y="309"/>
      <point x="614" y="323"/>
      <point x="619" y="323" type="curve" smooth="yes"/>
      <point x="624" y="323"/>
      <point x="634" y="314"/>
      <point x="642" y="306" type="curve"/>
      <point x="854" y="72" type="line" smooth="yes"/>
      <point x="862" y="63"/>
      <point x="869" y="55"/>
      <point x="869" y="47" type="curve" smooth="yes"/>
      <point x="869" y="39"/>
      <point x="861" y="32"/>
      <point x="841" y="27" type="curve"/>
      <point x="822" y="23"/>
      <point x="814" y="19"/>
      <point x="814" y="10" type="curve" smooth="yes"/>
      <point x="814" y="2"/>
      <point x="844" y="-1"/>
      <point x="887" y="-1" type="curve" smooth="yes"/>
      <point x="1000" y="-1"/>
      <point x="1027" y="0"/>
      <point x="1090" y="0" type="curve" smooth="yes"/>
      <point x="1228" y="0"/>
      <point x="1361" y="-5"/>
      <point x="1509" y="-5" type="curve" smooth="yes"/>
      <point x="1552" y="-5"/>
      <point x="1582" y="-2"/>
      <point x="1582" y="6" type="curve" smooth="yes"/>
      <point x="1582" y="15"/>
      <point x="1572" y="19"/>
      <point x="1549" y="24" type="curve" smooth="yes"/>
      <point x="1492" y="36"/>
      <point x="1485" y="49"/>
      <point x="1439" y="95" type="curve" smooth="yes"/>
      <point x="994" y="531" type="line" smooth="yes"/>
      <point x="986" y="538"/>
      <point x="983" y="546"/>
      <point x="989" y="549" type="curve" smooth="yes"/>
      <point x="1000" y="555"/>
      <point x="1012" y="561"/>
      <point x="1023" y="566" type="curve" smooth="yes"/>
      <point x="1120" y="606"/>
      <point x="1335" y="618"/>
      <point x="1489" y="623" type="curve" smooth="yes"/>
      <point x="1553" y="625"/>
      <point x="1566" y="635"/>
      <point x="1566" y="644" type="curve" smooth="yes"/>
      <point x="1566" y="651"/>
      <point x="1553" y="655"/>
      <point x="1535" y="655" type="curve" smooth="yes"/>
      <point x="1497" y="655"/>
      <point x="1226" y="651"/>
      <point x="1056" y="651" type="curve" smooth="yes"/>
      <point x="898" y="651" type="line" smooth="yes"/>
      <point x="847" y="651"/>
      <point x="812" y="648"/>
      <point x="812" y="640" type="curve" smooth="yes"/>
      <point x="812" y="631"/>
      <point x="820" y="626"/>
      <point x="843" y="620" type="curve" smooth="yes"/>
      <point x="855" y="617"/>
      <point x="862" y="608"/>
      <point x="862" y="597" type="curve" smooth="yes"/>
      <point x="862" y="588"/>
      <point x="857" y="577"/>
      <point x="847" y="567" type="curve" smooth="yes"/>
      <point x="647" y="363" type="line"/>
      <point x="640" y="355"/>
      <point x="627" y="345"/>
      <point x="620" y="345" type="curve" smooth="yes"/>
      <point x="615" y="345"/>
      <point x="615" y="359"/>
      <point x="615" y="364" type="curve" smooth="yes"/>
      <point x="615" y="551" type="line" smooth="yes"/>
      <point x="615" y="590"/>
      <point x="619" y="613"/>
      <point x="669" y="622" type="curve" smooth="yes"/>
      <point x="692" y="626"/>
      <point x="702" y="633"/>
      <point x="702" y="642" type="curve" smooth="yes"/>
      <point x="702" y="650"/>
      <point x="672" y="653"/>
      <point x="629" y="653" type="curve" smooth="yes"/>
      <point x="493" y="653"/>
      <point x="481" y="651"/>
      <point x="385" y="651" type="curve" smooth="yes"/>
      <point x="275" y="651"/>
      <point x="240" y="653"/>
      <point x="104" y="653" type="curve" smooth="yes"/>
      <point x="61" y="653"/>
      <point x="31" y="650"/>
      <point x="31" y="642" type="curve" smooth="yes"/>
      <point x="31" y="633"/>
      <point x="41" y="626"/>
      <point x="64" y="622" type="curve" smooth="yes"/>
      <point x="114" y="613"/>
      <point x="131" y="597"/>
      <point x="131" y="551" type="curve" smooth="yes"/>
      <point x="131" y="101" type="line" smooth="yes"/>
      <point x="131" y="51"/>
      <point x="114" y="33"/>
      <point x="64" y="24" type="curve" smooth="yes"/>
      <point x="41" y="20"/>
      <point x="31" y="15"/>
      <point x="31" y="6" type="curve" smooth="yes"/>
      <point x="31" y="-2"/>
      <point x="60" y="-5"/>
    </contour>
  </outline>
</glyph>
<glyph name="L" format="1">
  <advance width="996"/>
  <unicode hex="004C"/>
  <outline>
    <contour>
      <point x="87" y="-5" type="curve"/>
      <point x="87" y="-5"/>
      <point x="237" y="0"/>
      <point x="326" y="0" type="curve" smooth="yes"/>
      <point x="503" y="0"/>
      <point x="697" y="-5"/>
      <point x="934" y="-5" type="curve" smooth="yes"/>
      <point x="952" y="-5"/>
      <point x="957" y="3"/>
      <point x="959" y="12" type="curve"/>
      <point x="963" y="54"/>
      <point x="972" y="87"/>
      <point x="986" y="139" type="curve"/>
      <point x="986" y="140"/>
      <point x="987" y="142"/>
      <point x="987" y="144" type="curve" smooth="yes"/>
      <point x="987" y="152"/>
      <point x="983" y="162"/>
      <point x="975" y="162" type="curve" smooth="yes"/>
      <point x="966" y="162"/>
      <point x="956" y="140"/>
      <point x="953" y="132" type="curve" smooth="yes"/>
      <point x="939" y="95"/>
      <point x="927" y="85"/>
      <point x="901" y="61" type="curve" smooth="yes"/>
      <point x="888" y="49"/>
      <point x="859" y="35"/>
      <point x="823" y="35" type="curve" smooth="yes"/>
      <point x="699" y="35" type="line" smooth="yes"/>
      <point x="633" y="35"/>
      <point x="622" y="55"/>
      <point x="622" y="96" type="curve" smooth="yes"/>
      <point x="622" y="567" type="line" smooth="yes"/>
      <point x="622" y="606"/>
      <point x="661" y="613"/>
      <point x="711" y="622" type="curve" smooth="yes"/>
      <point x="734" y="626"/>
      <point x="744" y="633"/>
      <point x="744" y="642" type="curve" smooth="yes"/>
      <point x="744" y="650"/>
      <point x="716" y="653"/>
      <point x="676" y="653" type="curve" smooth="yes"/>
      <point x="548" y="653"/>
      <point x="494" y="650"/>
      <point x="378" y="650" type="curve" smooth="yes"/>
      <point x="275" y="650"/>
      <point x="242" y="653"/>
      <point x="114" y="653" type="curve" smooth="yes"/>
      <point x="74" y="653"/>
      <point x="46" y="650"/>
      <point x="46" y="642" type="curve" smooth="yes"/>
      <point x="46" y="633"/>
      <point x="56" y="626"/>
      <point x="79" y="622" type="curve" smooth="yes"/>
      <point x="129" y="613"/>
      <point x="140" y="608"/>
      <point x="140" y="560" type="curve" smooth="yes"/>
      <point x="140" y="96" type="line" smooth="yes"/>
      <point x="140" y="52"/>
      <point x="111" y="34"/>
      <point x="59" y="24" type="curve"/>
      <point x="55" y="23"/>
      <point x="37" y="19"/>
      <point x="37" y="7" type="curve" smooth="yes"/>
      <point x="37" y="0"/>
      <point x="55" y="-5"/>
    </contour>
  </outline>
</glyph>
<glyph name="M" format="1">
  <advance width="1726"/>
  <unicode hex="004D"/>
  <outline>
    <contour>
      <point x="102" y="-5"/>
      <point x="103" y="0"/>
      <point x="139" y="0" type="curve" smooth="yes"/>
      <point x="176" y="0"/>
      <point x="179" y="-5"/>
      <point x="233" y="-5" type="curve" smooth="yes"/>
      <point x="250" y="-5"/>
      <point x="262" y="-2"/>
      <point x="262" y="6" type="curve" smooth="yes"/>
      <point x="262" y="15"/>
      <point x="252" y="20"/>
      <point x="229" y="24" type="curve" smooth="yes"/>
      <point x="188" y="31"/>
      <point x="164" y="66"/>
      <point x="164" y="102" type="curve" smooth="yes"/>
      <point x="164" y="238"/>
      <point x="176" y="330"/>
      <point x="196" y="471" type="curve" smooth="yes"/>
      <point x="197" y="478"/>
      <point x="206" y="478"/>
      <point x="209" y="471" type="curve" smooth="yes"/>
      <point x="284" y="296"/>
      <point x="341" y="152"/>
      <point x="378" y="46" type="curve" smooth="yes"/>
      <point x="409" y="-40"/>
      <point x="806" y="-82"/>
      <point x="865" y="40" type="curve" smooth="yes"/>
      <point x="1073" y="464" type="line" smooth="yes"/>
      <point x="1080" y="477"/>
      <point x="1087" y="478"/>
      <point x="1089" y="464" type="curve"/>
      <point x="1095" y="329"/>
      <point x="1101" y="240"/>
      <point x="1101" y="96" type="curve" smooth="yes"/>
      <point x="1101" y="49"/>
      <point x="1089" y="29"/>
      <point x="1050" y="24" type="curve" smooth="yes"/>
      <point x="1027" y="21"/>
      <point x="1017" y="15"/>
      <point x="1017" y="6" type="curve" smooth="yes"/>
      <point x="1017" y="-2"/>
      <point x="1046" y="-5"/>
      <point x="1087" y="-5" type="curve" smooth="yes"/>
      <point x="1216" y="-5"/>
      <point x="1241" y="0"/>
      <point x="1339" y="0" type="curve" smooth="yes"/>
      <point x="1450" y="0"/>
      <point x="1491" y="-5"/>
      <point x="1620" y="-5" type="curve" smooth="yes"/>
      <point x="1661" y="-5"/>
      <point x="1690" y="-2"/>
      <point x="1690" y="6" type="curve" smooth="yes"/>
      <point x="1690" y="15"/>
      <point x="1680" y="20"/>
      <point x="1657" y="24" type="curve" smooth="yes"/>
      <point x="1607" y="33"/>
      <point x="1584" y="54"/>
      <point x="1582" y="95" type="curve" smooth="yes"/>
      <point x="1574" y="246"/>
      <point x="1560" y="382"/>
      <point x="1560" y="568" type="curve" smooth="yes"/>
      <point x="1560" y="583"/>
      <point x="1570" y="596"/>
      <point x="1584" y="602" type="curve" smooth="yes"/>
      <point x="1602" y="610"/>
      <point x="1625" y="618"/>
      <point x="1643" y="625" type="curve" smooth="yes"/>
      <point x="1663" y="633"/>
      <point x="1669" y="637"/>
      <point x="1669" y="646" type="curve" smooth="yes"/>
      <point x="1669" y="655"/>
      <point x="1621" y="656"/>
      <point x="1602" y="656" type="curve" smooth="yes"/>
      <point x="1529" y="656"/>
      <point x="1368" y="648"/>
      <point x="1241" y="648" type="curve" smooth="yes"/>
      <point x="1127" y="648" type="line" smooth="yes"/>
      <point x="1111" y="648"/>
      <point x="1101" y="643"/>
      <point x="1095" y="635" type="curve" smooth="yes"/>
      <point x="1091" y="614"/>
      <point x="1083" y="582"/>
      <point x="1077" y="560" type="curve"/>
      <point x="880" y="150" type="line" smooth="yes"/>
      <point x="875" y="140"/>
      <point x="861" y="143"/>
      <point x="857" y="153" type="curve" smooth="yes"/>
      <point x="699" y="554" type="line" smooth="yes"/>
      <point x="689" y="579"/>
      <point x="684" y="607"/>
      <point x="677" y="631" type="curve" smooth="yes"/>
      <point x="668" y="641"/>
      <point x="646" y="647"/>
      <point x="617" y="647" type="curve" smooth="yes"/>
      <point x="536" y="647"/>
      <point x="228" y="655"/>
      <point x="146" y="655" type="curve" smooth="yes"/>
      <point x="84" y="655"/>
      <point x="42" y="654"/>
      <point x="42" y="644" type="curve" smooth="yes"/>
      <point x="42" y="635"/>
      <point x="51" y="627"/>
      <point x="64" y="624" type="curve" smooth="yes"/>
      <point x="94" y="617"/>
      <point x="115" y="614"/>
      <point x="139" y="594" type="curve" smooth="yes"/>
      <point x="152" y="583"/>
      <point x="153" y="572"/>
      <point x="154" y="561" type="curve" smooth="yes"/>
      <point x="155" y="551"/>
      <point x="155" y="538"/>
      <point x="155" y="528" type="curve" smooth="yes"/>
      <point x="155" y="444"/>
      <point x="137" y="282"/>
      <point x="114" y="102" type="curve" smooth="yes"/>
      <point x="108" y="55"/>
      <point x="85" y="30"/>
      <point x="52" y="24" type="curve" smooth="yes"/>
      <point x="29" y="20"/>
      <point x="19" y="15"/>
      <point x="19" y="6" type="curve" smooth="yes"/>
      <point x="19" y="-2"/>
      <point x="31" y="-5"/>
      <point x="48" y="-5" type="curve" smooth="yes"/>
    </contour>
  </outline>
</glyph>
<glyph name="O" format="1">
  <advance width="1557"/>
  <unicode hex="004F"/>
  <outline>
    <contour>
      <point x="769" y="-14" type="curve" smooth="yes"/>
      <point x="1254" y="-14"/>
      <point x="1512" y="135"/>
      <point x="1512" y="335" type="curve" smooth="yes"/>
      <point x="1512" y="552"/>
      <point x="1173" y="664"/>
      <point x="790" y="664" type="curve" smooth="yes"/>
      <point x="286" y="664"/>
      <point x="45" y="515"/>
      <point x="45" y="315" type="curve" smooth="yes"/>
      <point x="45" y="98"/>
      <point x="365" y="-14"/>
    </contour>
    <contour>
      <point x="789" y="26" type="curve" smooth="yes"/>
      <point x="622" y="26"/>
      <point x="538" y="179"/>
      <point x="538" y="365" type="curve" smooth="yes"/>
      <point x="538" y="521"/>
      <point x="616" y="622"/>
      <point x="767" y="622" type="curve" smooth="yes"/>
      <point x="934" y="622"/>
      <point x="1019" y="471"/>
      <point x="1019" y="286" type="curve" smooth="yes"/>
      <point x="1019" y="129"/>
      <point x="942" y="26"/>
    </contour>
  </outline>
</glyph>
<glyph name="R" format="1">
  <advance width="1480"/>
  <unicode hex="0052"/>
  <outline>
    <contour>
      <point x="1336" y="-21"/>
      <point x="1485" y="-15"/>
      <point x="1485" y="14" type="curve" smooth="yes"/>
      <point x="1485" y="22"/>
      <point x="1480" y="25"/>
      <point x="1470" y="25" type="curve" smooth="yes"/>
      <point x="1423" y="25"/>
      <point x="1390" y="27"/>
      <point x="1355" y="58" type="curve" smooth="yes"/>
      <point x="1260" y="142"/>
      <point x="1214" y="218"/>
      <point x="1152" y="312" type="curve" smooth="yes"/>
      <point x="1148" y="318"/>
      <point x="1147" y="323"/>
      <point x="1152" y="325" type="curve"/>
      <point x="1207" y="353"/>
      <point x="1270" y="403"/>
      <point x="1270" y="493" type="curve" smooth="yes"/>
      <point x="1270" y="625"/>
      <point x="1026" y="657"/>
      <point x="487" y="657" type="curve" smooth="yes"/>
      <point x="379" y="657"/>
      <point x="343" y="652"/>
      <point x="273" y="652" type="curve" smooth="yes"/>
      <point x="196" y="652"/>
      <point x="191" y="653"/>
      <point x="90" y="653" type="curve" smooth="yes"/>
      <point x="58" y="653"/>
      <point x="36" y="650"/>
      <point x="36" y="642" type="curve" smooth="yes"/>
      <point x="36" y="633"/>
      <point x="46" y="624"/>
      <point x="69" y="622" type="curve" smooth="yes"/>
      <point x="126" y="617"/>
      <point x="130" y="602"/>
      <point x="130" y="526" type="curve" smooth="yes"/>
      <point x="130" y="100" type="line" smooth="yes"/>
      <point x="130" y="51"/>
      <point x="107" y="33"/>
      <point x="57" y="24" type="curve" smooth="yes"/>
      <point x="34" y="20"/>
      <point x="24" y="15"/>
      <point x="24" y="6" type="curve" smooth="yes"/>
      <point x="24" y="-2"/>
      <point x="53" y="-5"/>
      <point x="94" y="-5" type="curve" smooth="yes"/>
      <point x="224" y="-5"/>
      <point x="284" y="2"/>
      <point x="407" y="2" type="curve" smooth="yes"/>
      <point x="498" y="2"/>
      <point x="513" y="-5"/>
      <point x="643" y="-5" type="curve" smooth="yes"/>
      <point x="684" y="-5"/>
      <point x="713" y="-2"/>
      <point x="713" y="6" type="curve" smooth="yes"/>
      <point x="713" y="15"/>
      <point x="703" y="20"/>
      <point x="680" y="24" type="curve" smooth="yes"/>
      <point x="630" y="33"/>
      <point x="613" y="67"/>
      <point x="613" y="110" type="curve" smooth="yes"/>
      <point x="613" y="286" type="line" smooth="yes"/>
      <point x="613" y="298"/>
      <point x="617" y="307"/>
      <point x="628" y="306" type="curve" smooth="yes"/>
      <point x="646" y="304"/>
      <point x="678" y="299"/>
      <point x="707" y="285" type="curve" smooth="yes"/>
      <point x="727" y="275"/>
      <point x="739" y="264"/>
      <point x="750" y="246" type="curve" smooth="yes"/>
      <point x="819" y="134"/>
      <point x="837" y="110"/>
      <point x="883" y="62" type="curve" smooth="yes"/>
      <point x="954" y="-13"/>
      <point x="1118" y="-21"/>
      <point x="1269" y="-21" type="curve" smooth="yes"/>
    </contour>
    <contour>
      <point x="633" y="329"/>
      <point x="613" y="331"/>
      <point x="613" y="364" type="curve" smooth="yes"/>
      <point x="613" y="444"/>
      <point x="614" y="500"/>
      <point x="615" y="534" type="curve" smooth="yes"/>
      <point x="618" y="603"/>
      <point x="626" y="627"/>
      <point x="669" y="627" type="curve" smooth="yes"/>
      <point x="795" y="627"/>
      <point x="816" y="558"/>
      <point x="816" y="477" type="curve" smooth="yes"/>
      <point x="816" y="400"/>
      <point x="758" y="329"/>
      <point x="666" y="329" type="curve" smooth="yes"/>
    </contour>
  </outline>
</glyph>
<glyph name="S" format="1">
  <advance width="839"/>
  <unicode hex="0053"/>
  <outline>
    <contour>
      <point x="382" y="-16" type="curve" smooth="yes"/>
      <point x="632" y="-16"/>
      <point x="796" y="90"/>
      <point x="796" y="280" type="curve" smooth="yes"/>
      <point x="796" y="409"/>
      <point x="697" y="472"/>
      <point x="509" y="496" type="curve" smooth="yes"/>
      <point x="278" y="525"/>
      <point x="233" y="541"/>
      <point x="233" y="584" type="curve" smooth="yes"/>
      <point x="233" y="607"/>
      <point x="281" y="630"/>
      <point x="453" y="630" type="curve" smooth="yes"/>
      <point x="646" y="630"/>
      <point x="699" y="606"/>
      <point x="738" y="523" type="curve" smooth="yes"/>
      <point x="741" y="516"/>
      <point x="752" y="509"/>
      <point x="766" y="509" type="curve" smooth="yes"/>
      <point x="776" y="509"/>
      <point x="782" y="512"/>
      <point x="782" y="520" type="curve" smooth="yes"/>
      <point x="782" y="552"/>
      <point x="771" y="588"/>
      <point x="762" y="617" type="curve" smooth="yes"/>
      <point x="759" y="628"/>
      <point x="738" y="638"/>
      <point x="719" y="642" type="curve" smooth="yes"/>
      <point x="677" y="651"/>
      <point x="624" y="664"/>
      <point x="506" y="664" type="curve" smooth="yes"/>
      <point x="148" y="664"/>
      <point x="71" y="552"/>
      <point x="71" y="412" type="curve" smooth="yes"/>
      <point x="71" y="239"/>
      <point x="221" y="190"/>
      <point x="449" y="176" type="curve" smooth="yes"/>
      <point x="640" y="165"/>
      <point x="637" y="136"/>
      <point x="637" y="104" type="curve" smooth="yes"/>
      <point x="637" y="71"/>
      <point x="578" y="17"/>
      <point x="460" y="17" type="curve" smooth="yes"/>
      <point x="265" y="17"/>
      <point x="145" y="28"/>
      <point x="75" y="160" type="curve" smooth="yes"/>
      <point x="71" y="167"/>
      <point x="66" y="171"/>
      <point x="59" y="171" type="curve" smooth="yes"/>
      <point x="49" y="171"/>
      <point x="40" y="166"/>
      <point x="40" y="157" type="curve"/>
      <point x="43" y="129"/>
      <point x="48" y="79"/>
      <point x="59" y="52" type="curve" smooth="yes"/>
      <point x="62" y="44"/>
      <point x="73" y="36"/>
      <point x="83" y="32" type="curve" smooth="yes"/>
      <point x="158" y="2"/>
      <point x="276" y="-16"/>
    </contour>
  </outline>
</glyph>
<glyph name="U" format="1">
  <advance width="1140"/>
  <unicode hex="0055"/>
  <outline>
    <contour>
      <point x="576" y="-14" type="curve" smooth="yes"/>
      <point x="965" y="-14"/>
      <point x="1026" y="62"/>
      <point x="1037" y="250" type="curve" smooth="yes"/>
      <point x="1040" y="342"/>
      <point x="1040" y="432"/>
      <point x="1047" y="547" type="curve" smooth="yes"/>
      <point x="1049" y="587"/>
      <point x="1062" y="615"/>
      <point x="1097" y="622" type="curve" smooth="yes"/>
      <point x="1120" y="627"/>
      <point x="1130" y="633"/>
      <point x="1130" y="642" type="curve" smooth="yes"/>
      <point x="1130" y="650"/>
      <point x="1118" y="653"/>
      <point x="1101" y="653" type="curve" smooth="yes"/>
      <point x="1078" y="653"/>
      <point x="1052" y="650"/>
      <point x="1020" y="650" type="curve" smooth="yes"/>
      <point x="991" y="650"/>
      <point x="975" y="651"/>
      <point x="945" y="651" type="curve" smooth="yes"/>
      <point x="928" y="651"/>
      <point x="916" y="648"/>
      <point x="916" y="640" type="curve" smooth="yes"/>
      <point x="916" y="631"/>
      <point x="935" y="624"/>
      <point x="949" y="620" type="curve" smooth="yes"/>
      <point x="977" y="612"/>
      <point x="989" y="562"/>
      <point x="990" y="511" type="curve" smooth="yes"/>
      <point x="992" y="434"/>
      <point x="994" y="340"/>
      <point x="994" y="296" type="curve" smooth="yes"/>
      <point x="994" y="125"/>
      <point x="920" y="36"/>
      <point x="795" y="36" type="curve" smooth="yes"/>
      <point x="673" y="36"/>
      <point x="585" y="108"/>
      <point x="585" y="268" type="curve" smooth="yes"/>
      <point x="585" y="549" type="line" smooth="yes"/>
      <point x="585" y="589"/>
      <point x="611" y="616"/>
      <point x="627" y="621" type="curve" smooth="yes"/>
      <point x="649" y="628"/>
      <point x="660" y="632"/>
      <point x="660" y="641" type="curve" smooth="yes"/>
      <point x="660" y="649"/>
      <point x="627" y="652"/>
      <point x="581" y="652" type="curve" smooth="yes"/>
      <point x="524" y="652"/>
      <point x="448" y="650"/>
      <point x="364" y="650" type="curve" smooth="yes"/>
      <point x="263" y="650"/>
      <point x="184" y="653"/>
      <point x="103" y="653" type="curve" smooth="yes"/>
      <point x="57" y="653"/>
      <point x="24" y="650"/>
      <point x="24" y="642" type="curve" smooth="yes"/>
      <point x="24" y="633"/>
      <point x="34" y="626"/>
      <point x="57" y="620" type="curve" smooth="yes"/>
      <point x="79" y="614"/>
      <point x="103" y="595"/>
      <point x="103" y="547" type="curve" smooth="yes"/>
      <point x="103" y="240" type="line" smooth="yes"/>
      <point x="103" y="87"/>
      <point x="262" y="-14"/>
    </contour>
  </outline>
</glyph>
<glyph name="V" format="1">
  <advance width="1089"/>
  <unicode hex="0056"/>
  <outline>
    <contour>
      <point x="547" y="-12" type="curve" smooth="yes"/>
      <point x="628" y="-12"/>
      <point x="752" y="-5"/>
      <point x="764" y="25" type="curve" smooth="yes"/>
      <point x="774" y="50"/>
      <point x="780" y="69"/>
      <point x="784" y="79" type="curve" smooth="yes"/>
      <point x="972" y="535" type="line" smooth="yes"/>
      <point x="987" y="571"/>
      <point x="1021" y="611"/>
      <point x="1070" y="622" type="curve" smooth="yes"/>
      <point x="1093" y="627"/>
      <point x="1103" y="633"/>
      <point x="1103" y="642" type="curve" smooth="yes"/>
      <point x="1103" y="650"/>
      <point x="1091" y="653"/>
      <point x="1074" y="653" type="curve" smooth="yes"/>
      <point x="1048" y="653"/>
      <point x="999" y="650"/>
      <point x="960" y="650" type="curve" smooth="yes"/>
      <point x="922" y="650"/>
      <point x="887" y="651"/>
      <point x="861" y="651" type="curve" smooth="yes"/>
      <point x="844" y="651"/>
      <point x="832" y="648"/>
      <point x="832" y="640" type="curve" smooth="yes"/>
      <point x="832" y="631"/>
      <point x="845" y="623"/>
      <point x="865" y="620" type="curve" smooth="yes"/>
      <point x="908" y="614"/>
      <point x="939" y="585"/>
      <point x="912" y="514" type="curve" smooth="yes"/>
      <point x="775" y="154" type="line" smooth="yes"/>
      <point x="771" y="145"/>
      <point x="766" y="148"/>
      <point x="764" y="153" type="curve" smooth="yes"/>
      <point x="620" y="533" type="line"/>
      <point x="617" y="542"/>
      <point x="609" y="559"/>
      <point x="609" y="582" type="curve" smooth="yes"/>
      <point x="609" y="605"/>
      <point x="636" y="617"/>
      <point x="674" y="621" type="curve" smooth="yes"/>
      <point x="697" y="623"/>
      <point x="707" y="632"/>
      <point x="707" y="641" type="curve" smooth="yes"/>
      <point x="707" y="649"/>
      <point x="677" y="652"/>
      <point x="634" y="652" type="curve" smooth="yes"/>
      <point x="584" y="652"/>
      <point x="479" y="650"/>
      <point x="379" y="650" type="curve" smooth="yes"/>
      <point x="263" y="650"/>
      <point x="150" y="653"/>
      <point x="73" y="653" type="curve" smooth="yes"/>
      <point x="30" y="653"/>
      <point x="0" y="650"/>
      <point x="0" y="642" type="curve" smooth="yes"/>
      <point x="0" y="633"/>
      <point x="11" y="627"/>
      <point x="33" y="620" type="curve" smooth="yes"/>
      <point x="67" y="609"/>
      <point x="89" y="584"/>
      <point x="103" y="547" type="curve" smooth="yes"/>
      <point x="286" y="56" type="line" smooth="yes"/>
      <point x="293" y="38"/>
      <point x="295" y="29"/>
      <point x="302" y="13" type="curve" smooth="yes"/>
      <point x="309" y="-4"/>
      <point x="460" y="-12"/>
    </contour>
  </outline>
</glyph>
<glyph name="W" format="1">
  <advance width="1784"/>
  <unicode hex="0057"/>
  <outline>
    <contour>
      <point x="504" y="-16" type="curve" smooth="yes"/>
      <point x="608" y="-16"/>
      <point x="785" y="-4"/>
      <point x="798" y="35" type="curve" smooth="yes"/>
      <point x="833" y="133"/>
      <point x="857" y="197"/>
      <point x="905" y="310" type="curve" smooth="yes"/>
      <point x="910" y="323"/>
      <point x="912" y="325"/>
      <point x="916" y="316" type="curve"/>
      <point x="963" y="199"/>
      <point x="985" y="133"/>
      <point x="1031" y="27" type="curve" smooth="yes"/>
      <point x="1045" y="-4"/>
      <point x="1209" y="-12"/>
      <point x="1280" y="-12" type="curve" smooth="yes"/>
      <point x="1379" y="-12"/>
      <point x="1501" y="-2"/>
      <point x="1517" y="44" type="curve" smooth="yes"/>
      <point x="1683" y="534" type="line"/>
      <point x="1694" y="563"/>
      <point x="1716" y="611"/>
      <point x="1765" y="622" type="curve" smooth="yes"/>
      <point x="1788" y="627"/>
      <point x="1798" y="633"/>
      <point x="1798" y="642" type="curve" smooth="yes"/>
      <point x="1798" y="650"/>
      <point x="1786" y="653"/>
      <point x="1769" y="653" type="curve" smooth="yes"/>
      <point x="1744" y="653"/>
      <point x="1712" y="650"/>
      <point x="1679" y="650" type="curve" smooth="yes"/>
      <point x="1653" y="650"/>
      <point x="1633" y="651"/>
      <point x="1607" y="651" type="curve" smooth="yes"/>
      <point x="1590" y="651"/>
      <point x="1578" y="648"/>
      <point x="1578" y="640" type="curve" smooth="yes"/>
      <point x="1578" y="631"/>
      <point x="1597" y="624"/>
      <point x="1611" y="620" type="curve" smooth="yes"/>
      <point x="1633" y="614"/>
      <point x="1641" y="597"/>
      <point x="1641" y="577" type="curve" smooth="yes"/>
      <point x="1641" y="566"/>
      <point x="1639" y="553"/>
      <point x="1635" y="541" type="curve"/>
      <point x="1590" y="388"/>
      <point x="1546" y="242"/>
      <point x="1513" y="154" type="curve"/>
      <point x="1509" y="145"/>
      <point x="1505" y="141"/>
      <point x="1502" y="148" type="curve" smooth="yes"/>
      <point x="1399" y="413" type="line"/>
      <point x="1396" y="420"/>
      <point x="1401" y="441"/>
      <point x="1405" y="451" type="curve" smooth="yes"/>
      <point x="1422" y="494"/>
      <point x="1447" y="555"/>
      <point x="1458" y="574" type="curve" smooth="yes"/>
      <point x="1474" y="602"/>
      <point x="1483" y="613"/>
      <point x="1526" y="622" type="curve" smooth="yes"/>
      <point x="1549" y="627"/>
      <point x="1559" y="633"/>
      <point x="1559" y="642" type="curve" smooth="yes"/>
      <point x="1559" y="650"/>
      <point x="1547" y="653"/>
      <point x="1530" y="653" type="curve" smooth="yes"/>
      <point x="1506" y="653"/>
      <point x="1494" y="650"/>
      <point x="1471" y="650" type="curve" smooth="yes"/>
      <point x="1452" y="650"/>
      <point x="1448" y="652"/>
      <point x="1419" y="652" type="curve" smooth="yes"/>
      <point x="1402" y="652"/>
      <point x="1390" y="649"/>
      <point x="1390" y="641" type="curve" smooth="yes"/>
      <point x="1390" y="624"/>
      <point x="1427" y="622"/>
      <point x="1427" y="598" type="curve" smooth="yes"/>
      <point x="1427" y="596"/>
      <point x="1427" y="594"/>
      <point x="1426" y="591" type="curve"/>
      <point x="1421" y="574"/>
      <point x="1402" y="514"/>
      <point x="1386" y="478" type="curve" smooth="yes"/>
      <point x="1378" y="460"/>
      <point x="1375" y="462"/>
      <point x="1368" y="478" type="curve" smooth="yes"/>
      <point x="1360" y="497"/>
      <point x="1327" y="579"/>
      <point x="1323" y="591" type="curve" smooth="yes"/>
      <point x="1322" y="594"/>
      <point x="1321" y="596"/>
      <point x="1321" y="599" type="curve" smooth="yes"/>
      <point x="1321" y="622"/>
      <point x="1362" y="624"/>
      <point x="1362" y="641" type="curve" smooth="yes"/>
      <point x="1362" y="649"/>
      <point x="1350" y="652"/>
      <point x="1333" y="652" type="curve" smooth="yes"/>
      <point x="1262" y="652"/>
      <point x="1167" y="650"/>
      <point x="1061" y="650" type="curve" smooth="yes"/>
      <point x="933" y="650"/>
      <point x="838" y="653"/>
      <point x="728" y="653" type="curve" smooth="yes"/>
      <point x="711" y="653"/>
      <point x="699" y="650"/>
      <point x="699" y="642" type="curve" smooth="yes"/>
      <point x="699" y="633"/>
      <point x="710" y="627"/>
      <point x="732" y="620" type="curve" smooth="yes"/>
      <point x="766" y="610"/>
      <point x="810" y="581"/>
      <point x="827" y="538" type="curve" smooth="yes"/>
      <point x="884" y="396" type="line" smooth="yes"/>
      <point x="889" y="383"/>
      <point x="892" y="375"/>
      <point x="892" y="367" type="curve" smooth="yes"/>
      <point x="892" y="361"/>
      <point x="890" y="354"/>
      <point x="886" y="344" type="curve" smooth="yes"/>
      <point x="808" y="151" type="line"/>
      <point x="804" y="140"/>
      <point x="800" y="137"/>
      <point x="793" y="152" type="curve" smooth="yes"/>
      <point x="726" y="303"/>
      <point x="690" y="389"/>
      <point x="629" y="545" type="curve"/>
      <point x="629" y="545"/>
      <point x="621" y="567"/>
      <point x="621" y="588" type="curve" smooth="yes"/>
      <point x="621" y="603"/>
      <point x="625" y="617"/>
      <point x="641" y="621" type="curve" smooth="yes"/>
      <point x="664" y="627"/>
      <point x="674" y="632"/>
      <point x="674" y="641" type="curve" smooth="yes"/>
      <point x="674" y="649"/>
      <point x="640" y="652"/>
      <point x="593" y="652" type="curve" smooth="yes"/>
      <point x="536" y="652"/>
      <point x="435" y="650"/>
      <point x="331" y="650" type="curve" smooth="yes"/>
      <point x="236" y="650"/>
      <point x="168" y="653"/>
      <point x="81" y="653" type="curve" smooth="yes"/>
      <point x="34" y="653"/>
      <point x="0" y="650"/>
      <point x="0" y="642" type="curve" smooth="yes"/>
      <point x="0" y="633"/>
      <point x="11" y="627"/>
      <point x="33" y="620" type="curve" smooth="yes"/>
      <point x="67" y="609"/>
      <point x="89" y="588"/>
      <point x="105" y="554" type="curve"/>
      <point x="306" y="48" type="line" smooth="yes"/>
      <point x="328" y="-7"/>
      <point x="465" y="-16"/>
    </contour>
  </outline>
</glyph>
<glyph name="X" format="1">
  <advance width="1157"/>
  <unicode hex="0058"/>
  <outline>
    <contour>
      <point x="24" y="-5" type="curve" smooth="yes"/>
      <point x="57" y="-5"/>
      <point x="105" y="1"/>
      <point x="150" y="1" type="curve" smooth="yes"/>
      <point x="186" y="1"/>
      <point x="221" y="-1"/>
      <point x="239" y="-1" type="curve" smooth="yes"/>
      <point x="256" y="-1"/>
      <point x="268" y="2"/>
      <point x="268" y="10" type="curve" smooth="yes"/>
      <point x="268" y="19"/>
      <point x="258" y="24"/>
      <point x="235" y="30" type="curve"/>
      <point x="208" y="36"/>
      <point x="190" y="51"/>
      <point x="190" y="70" type="curve" smooth="yes"/>
      <point x="190" y="77"/>
      <point x="193" y="85"/>
      <point x="199" y="93" type="curve" smooth="yes"/>
      <point x="334" y="267" type="line" smooth="yes"/>
      <point x="341" y="276"/>
      <point x="346" y="276"/>
      <point x="356" y="262" type="curve" smooth="yes"/>
      <point x="460" y="111" type="line"/>
      <point x="469" y="99"/>
      <point x="472" y="88"/>
      <point x="472" y="78" type="curve" smooth="yes"/>
      <point x="472" y="53"/>
      <point x="448" y="37"/>
      <point x="428" y="31" type="curve" smooth="yes"/>
      <point x="414" y="27"/>
      <point x="395" y="20"/>
      <point x="395" y="11" type="curve" smooth="yes"/>
      <point x="395" y="3"/>
      <point x="425" y="0"/>
      <point x="467" y="0" type="curve" smooth="yes"/>
      <point x="526" y="0"/>
      <point x="621" y="1"/>
      <point x="722" y="1" type="curve" smooth="yes"/>
      <point x="839" y="1"/>
      <point x="1008" y="-5"/>
      <point x="1077" y="-5" type="curve" smooth="yes"/>
      <point x="1119" y="-5"/>
      <point x="1149" y="-2"/>
      <point x="1149" y="6" type="curve" smooth="yes"/>
      <point x="1149" y="15"/>
      <point x="1139" y="20"/>
      <point x="1116" y="26" type="curve" smooth="yes"/>
      <point x="1078" y="36"/>
      <point x="1039" y="67"/>
      <point x="1009" y="111" type="curve" smooth="yes"/>
      <point x="854" y="334" type="line"/>
      <point x="847" y="349"/>
      <point x="850" y="353"/>
      <point x="868" y="374" type="curve" smooth="yes"/>
      <point x="983" y="510" type="line" smooth="yes"/>
      <point x="1027" y="562"/>
      <point x="1075" y="615"/>
      <point x="1113" y="625" type="curve" smooth="yes"/>
      <point x="1136" y="631"/>
      <point x="1146" y="636"/>
      <point x="1146" y="645" type="curve" smooth="yes"/>
      <point x="1146" y="653"/>
      <point x="1134" y="656"/>
      <point x="1117" y="656" type="curve" smooth="yes"/>
      <point x="1090" y="656"/>
      <point x="1042" y="650"/>
      <point x="1003" y="650" type="curve" smooth="yes"/>
      <point x="973" y="650"/>
      <point x="946" y="651"/>
      <point x="922" y="651" type="curve" smooth="yes"/>
      <point x="905" y="651"/>
      <point x="893" y="648"/>
      <point x="893" y="640" type="curve" smooth="yes"/>
      <point x="893" y="631"/>
      <point x="912" y="623"/>
      <point x="926" y="620" type="curve" smooth="yes"/>
      <point x="958" y="614"/>
      <point x="971" y="604"/>
      <point x="971" y="589" type="curve" smooth="yes"/>
      <point x="971" y="576"/>
      <point x="961" y="558"/>
      <point x="945" y="538" type="curve" smooth="yes"/>
      <point x="838" y="397" type="line" smooth="yes"/>
      <point x="827" y="382"/>
      <point x="822" y="379"/>
      <point x="808" y="400" type="curve" smooth="yes"/>
      <point x="717" y="528" type="line" smooth="yes"/>
      <point x="694" y="560"/>
      <point x="684" y="578"/>
      <point x="684" y="590" type="curve" smooth="yes"/>
      <point x="684" y="606"/>
      <point x="702" y="611"/>
      <point x="735" y="621" type="curve" smooth="yes"/>
      <point x="758" y="628"/>
      <point x="768" y="632"/>
      <point x="768" y="641" type="curve" smooth="yes"/>
      <point x="768" y="649"/>
      <point x="738" y="652"/>
      <point x="696" y="652" type="curve" smooth="yes"/>
      <point x="651" y="652"/>
      <point x="548" y="650"/>
      <point x="448" y="650" type="curve" smooth="yes"/>
      <point x="323" y="650"/>
      <point x="173" y="655"/>
      <point x="91" y="655" type="curve" smooth="yes"/>
      <point x="48" y="655"/>
      <point x="18" y="652"/>
      <point x="18" y="644" type="curve" smooth="yes"/>
      <point x="18" y="635"/>
      <point x="29" y="629"/>
      <point x="51" y="622" type="curve" smooth="yes"/>
      <point x="85" y="611"/>
      <point x="117" y="599"/>
      <point x="167" y="529" type="curve" smooth="yes"/>
      <point x="301" y="341" type="line" smooth="yes"/>
      <point x="320" y="314"/>
      <point x="310" y="299"/>
      <point x="296" y="280" type="curve"/>
      <point x="171" y="124" type="line" smooth="yes"/>
      <point x="129" y="72"/>
      <point x="62" y="39"/>
      <point x="28" y="28" type="curve" smooth="yes"/>
      <point x="6" y="21"/>
      <point x="-5" y="15"/>
      <point x="-5" y="6" type="curve" smooth="yes"/>
      <point x="-5" y="-2"/>
      <point x="7" y="-5"/>
    </contour>
  </outline>
</glyph>
<glyph name="Y" format="1">
  <advance width="1002"/>
  <unicode hex="0059"/>
  <outline>
    <contour>
      <point x="346" y="-5"/>
      <point x="402" y="0"/>
      <point x="518" y="0" type="curve" smooth="yes"/>
      <point x="625" y="0"/>
      <point x="665" y="-5"/>
      <point x="791" y="-5" type="curve" smooth="yes"/>
      <point x="830" y="-5"/>
      <point x="858" y="-2"/>
      <point x="858" y="6" type="curve" smooth="yes"/>
      <point x="858" y="15"/>
      <point x="848" y="20"/>
      <point x="825" y="24" type="curve" smooth="yes"/>
      <point x="775" y="33"/>
      <point x="746" y="63"/>
      <point x="746" y="108" type="curve" smooth="yes"/>
      <point x="746" y="260" type="line" smooth="yes"/>
      <point x="746" y="299"/>
      <point x="745" y="307"/>
      <point x="771" y="350" type="curve" smooth="yes"/>
      <point x="817" y="425"/>
      <point x="828" y="443"/>
      <point x="882" y="526" type="curve" smooth="yes"/>
      <point x="918" y="581"/>
      <point x="935" y="607"/>
      <point x="970" y="617" type="curve" smooth="yes"/>
      <point x="998" y="625"/>
      <point x="1023" y="633"/>
      <point x="1023" y="642" type="curve" smooth="yes"/>
      <point x="1023" y="650"/>
      <point x="1011" y="653"/>
      <point x="994" y="653" type="curve" smooth="yes"/>
      <point x="971" y="653"/>
      <point x="931" y="650"/>
      <point x="890" y="650" type="curve" smooth="yes"/>
      <point x="861" y="650"/>
      <point x="845" y="651"/>
      <point x="815" y="651" type="curve" smooth="yes"/>
      <point x="798" y="651"/>
      <point x="786" y="648"/>
      <point x="786" y="640" type="curve" smooth="yes"/>
      <point x="786" y="631"/>
      <point x="805" y="622"/>
      <point x="819" y="620" type="curve" smooth="yes"/>
      <point x="838" y="617"/>
      <point x="860" y="610"/>
      <point x="860" y="585" type="curve" smooth="yes"/>
      <point x="860" y="573"/>
      <point x="855" y="556"/>
      <point x="842" y="534" type="curve" smooth="yes"/>
      <point x="808" y="474"/>
      <point x="788" y="437"/>
      <point x="758" y="390" type="curve" smooth="yes"/>
      <point x="740" y="362"/>
      <point x="733" y="352"/>
      <point x="725" y="352" type="curve" smooth="yes"/>
      <point x="719" y="352"/>
      <point x="711" y="364"/>
      <point x="697" y="390" type="curve" smooth="yes"/>
      <point x="605" y="560" type="line" smooth="yes"/>
      <point x="596" y="576"/>
      <point x="592" y="588"/>
      <point x="592" y="596" type="curve" smooth="yes"/>
      <point x="592" y="611"/>
      <point x="605" y="616"/>
      <point x="624" y="621" type="curve" smooth="yes"/>
      <point x="646" y="626"/>
      <point x="657" y="632"/>
      <point x="657" y="641" type="curve" smooth="yes"/>
      <point x="657" y="649"/>
      <point x="626" y="652"/>
      <point x="582" y="652" type="curve" smooth="yes"/>
      <point x="528" y="652"/>
      <point x="456" y="650"/>
      <point x="376" y="650" type="curve" smooth="yes"/>
      <point x="258" y="650"/>
      <point x="152" y="653"/>
      <point x="75" y="653" type="curve" smooth="yes"/>
      <point x="31" y="653"/>
      <point x="0" y="650"/>
      <point x="0" y="642" type="curve" smooth="yes"/>
      <point x="0" y="633"/>
      <point x="11" y="627"/>
      <point x="33" y="620" type="curve" smooth="yes"/>
      <point x="67" y="609"/>
      <point x="107" y="546"/>
      <point x="122" y="522" type="curve" smooth="yes"/>
      <point x="239" y="330" type="line"/>
      <point x="244" y="321"/>
      <point x="264" y="283"/>
      <point x="264" y="256" type="curve" smooth="yes"/>
      <point x="264" y="108" type="line" smooth="yes"/>
      <point x="264" y="60"/>
      <point x="236" y="33"/>
      <point x="186" y="24" type="curve" smooth="yes"/>
      <point x="163" y="20"/>
      <point x="153" y="15"/>
      <point x="153" y="6" type="curve" smooth="yes"/>
      <point x="153" y="-2"/>
      <point x="181" y="-5"/>
      <point x="220" y="-5" type="curve" smooth="yes"/>
    </contour>
  </outline>
</glyph>
<glyph name="bracketleft" format="1">
  <advance width="471"/>
  <unicode hex="005B"/>
  <outline>
    <contour>
      <point x="425" y="-200" type="line" smooth="yes"/>
      <point x="437" y="-200"/>
      <point x="451" y="-197"/>
      <point x="451" y="-185" type="curve" smooth="yes"/>
      <point x="451" y="-173"/>
      <point x="438" y="-169"/>
      <point x="425" y="-167" type="curve"/>
      <point x="346" y="-154" type="line" smooth="yes"/>
      <point x="334" y="-152"/>
      <point x="323" y="-139"/>
      <point x="323" y="-121" type="curve" smooth="yes"/>
      <point x="323" y="642" type="line" smooth="yes"/>
      <point x="323" y="653"/>
      <point x="337" y="666"/>
      <point x="346" y="667" type="curve" smooth="yes"/>
      <point x="425" y="673" type="line" smooth="yes"/>
      <point x="438" y="674"/>
      <point x="451" y="678"/>
      <point x="451" y="688" type="curve" smooth="yes"/>
      <point x="451" y="698"/>
      <point x="442" y="701"/>
      <point x="433" y="701" type="curve" smooth="yes"/>
      <point x="148" y="702" type="line" smooth="yes"/>
      <point x="116" y="702"/>
      <point x="110" y="702"/>
      <point x="110" y="668" type="curve" smooth="yes"/>
      <point x="110" y="-175" type="line" smooth="yes"/>
      <point x="110" y="-199"/>
      <point x="118" y="-200"/>
      <point x="141" y="-200" type="curve" smooth="yes"/>
    </contour>
  </outline>
</glyph>
<glyph name="a" format="1">
  <advance width="877"/>
  <unicode hex="0061"/>
  <outline>
    <contour>
      <point x="199" y="-14" type="curve" smooth="yes"/>
      <point x="287" y="-14"/>
      <point x="364" y="2"/>
      <point x="453" y="38" type="curve"/>
      <point x="456" y="38" type="line"/>
      <point x="505" y="3"/>
      <point x="570" y="-14"/>
      <point x="655" y="-14" type="curve" smooth="yes"/>
      <point x="696" y="-14"/>
      <point x="792" y="0"/>
      <point x="843" y="22" type="curve" smooth="yes"/>
      <point x="863" y="30"/>
      <point x="876" y="40"/>
      <point x="876" y="50" type="curve" smooth="yes"/>
      <point x="876" y="64"/>
      <point x="870" y="68"/>
      <point x="863" y="68" type="curve" smooth="yes"/>
      <point x="856" y="68"/>
      <point x="849" y="62"/>
      <point x="844" y="58" type="curve" smooth="yes"/>
      <point x="833" y="50"/>
      <point x="828" y="47"/>
      <point x="813" y="47" type="curve" smooth="yes"/>
      <point x="793" y="47"/>
      <point x="780" y="66"/>
      <point x="781" y="94" type="curve" smooth="yes"/>
      <point x="786" y="325" type="line"/>
      <point x="789" y="376"/>
      <point x="694" y="414"/>
      <point x="562" y="414" type="curve" smooth="yes"/>
      <point x="451" y="414"/>
      <point x="274" y="384"/>
      <point x="150" y="343" type="curve" smooth="yes"/>
      <point x="82" y="321"/>
      <point x="40" y="295"/>
      <point x="40" y="274" type="curve" smooth="yes"/>
      <point x="40" y="269"/>
      <point x="55" y="265"/>
      <point x="81" y="265" type="curve" smooth="yes"/>
      <point x="156" y="265"/>
      <point x="328" y="290"/>
      <point x="328" y="300" type="curve" smooth="yes"/>
      <point x="328" y="305"/>
      <point x="327" y="313"/>
      <point x="327" y="318" type="curve" smooth="yes"/>
      <point x="327" y="330"/>
      <point x="329" y="341"/>
      <point x="337" y="347" type="curve" smooth="yes"/>
      <point x="350" y="358"/>
      <point x="372" y="365"/>
      <point x="392" y="365" type="curve" smooth="yes"/>
      <point x="430" y="365"/>
      <point x="452" y="336"/>
      <point x="451" y="301" type="curve" smooth="yes"/>
      <point x="449" y="237" type="line" smooth="yes"/>
      <point x="448" y="210"/>
      <point x="445" y="208"/>
      <point x="392" y="197" type="curve" smooth="yes"/>
      <point x="183" y="155" type="line" smooth="yes"/>
      <point x="82" y="135"/>
      <point x="37" y="114"/>
      <point x="37" y="72" type="curve" smooth="yes"/>
      <point x="37" y="35"/>
      <point x="126" y="-14"/>
    </contour>
    <contour>
      <point x="375" y="34" type="curve" smooth="yes"/>
      <point x="351" y="34"/>
      <point x="326" y="52"/>
      <point x="326" y="87" type="curve" smooth="yes"/>
      <point x="326" y="110"/>
      <point x="350" y="138"/>
      <point x="420" y="164" type="curve" smooth="yes"/>
      <point x="431" y="168"/>
      <point x="437" y="169"/>
      <point x="440" y="169" type="curve" smooth="yes"/>
      <point x="448" y="169"/>
      <point x="450" y="163"/>
      <point x="449" y="148" type="curve" smooth="yes"/>
      <point x="447" y="99" type="line" smooth="yes"/>
      <point x="446" y="74"/>
      <point x="441" y="65"/>
      <point x="434" y="58" type="curve" smooth="yes"/>
      <point x="419" y="43"/>
      <point x="401" y="34"/>
    </contour>
  </outline>
</glyph>
<glyph name="b" format="1">
  <advance width="1031"/>
  <unicode hex="0062"/>
  <outline>
    <contour>
      <point x="644" y="-14" type="curve" smooth="yes"/>
      <point x="853" y="-14"/>
      <point x="996" y="80"/>
      <point x="996" y="217" type="curve" smooth="yes"/>
      <point x="996" y="328"/>
      <point x="855" y="414"/>
      <point x="677" y="414" type="curve" smooth="yes"/>
      <point x="600" y="414"/>
      <point x="490" y="396"/>
      <point x="418" y="363" type="curve"/>
      <point x="411" y="364"/>
      <point x="409" y="370"/>
      <point x="409" y="396" type="curve" smooth="yes"/>
      <point x="409" y="593" type="line" smooth="yes"/>
      <point x="409" y="649"/>
      <point x="412" y="693"/>
      <point x="412" y="698" type="curve" smooth="yes"/>
      <point x="412" y="702"/>
      <point x="409" y="705"/>
      <point x="406" y="705" type="curve" smooth="yes"/>
      <point x="404" y="705"/>
      <point x="401" y="704"/>
      <point x="386" y="701" type="curve" smooth="yes"/>
      <point x="355" y="696"/>
      <point x="140" y="669"/>
      <point x="55" y="664" type="curve" smooth="yes"/>
      <point x="39" y="663"/>
      <point x="16" y="661"/>
      <point x="16" y="654" type="curve" smooth="yes"/>
      <point x="16" y="646"/>
      <point x="23" y="642"/>
      <point x="29" y="639" type="curve" smooth="yes"/>
      <point x="56" y="627"/>
      <point x="75" y="601"/>
      <point x="75" y="566" type="curve" smooth="yes"/>
      <point x="75" y="81" type="line" smooth="yes"/>
      <point x="75" y="56"/>
      <point x="68" y="29"/>
      <point x="68" y="17" type="curve" smooth="yes"/>
      <point x="68" y="8"/>
      <point x="82" y="-3"/>
      <point x="101" y="-3" type="curve" smooth="yes"/>
      <point x="108" y="-3"/>
      <point x="116" y="-1"/>
      <point x="123" y="2" type="curve" smooth="yes"/>
      <point x="137" y="8"/>
      <point x="156" y="15"/>
      <point x="175" y="15" type="curve" smooth="yes"/>
      <point x="192" y="15"/>
      <point x="249" y="7"/>
      <point x="318" y="-1" type="curve"/>
      <point x="417" y="-8"/>
      <point x="535" y="-14"/>
    </contour>
    <contour>
      <point x="546" y="17" type="curve" smooth="yes"/>
      <point x="476" y="17"/>
      <point x="409" y="62"/>
      <point x="409" y="132" type="curve" smooth="yes"/>
      <point x="409" y="326" type="line"/>
      <point x="438" y="353"/>
      <point x="478" y="372"/>
      <point x="531" y="372" type="curve" smooth="yes"/>
      <point x="626" y="372"/>
      <point x="669" y="272"/>
      <point x="669" y="195" type="curve" smooth="yes"/>
      <point x="669" y="94"/>
      <point x="622" y="17"/>
    </contour>
  </outline>
</glyph>
<glyph name="c" format="1">
  <advance width="664"/>
  <unicode hex="0063"/>
  <outline>
    <contour>
      <point x="520" y="-15"/>
      <point x="577" y="7"/>
      <point x="612" y="48" type="curve" smooth="yes"/>
      <point x="623" y="61"/>
      <point x="629" y="71"/>
      <point x="629" y="79" type="curve" smooth="yes"/>
      <point x="629" y="87"/>
      <point x="624" y="93"/>
      <point x="618" y="93" type="curve" smooth="yes"/>
      <point x="615" y="93"/>
      <point x="611" y="91"/>
      <point x="608" y="88" type="curve" smooth="yes"/>
      <point x="576" y="56"/>
      <point x="552" y="45"/>
      <point x="513" y="45" type="curve" smooth="yes"/>
      <point x="428" y="45"/>
      <point x="361" y="118"/>
      <point x="361" y="212" type="curve" smooth="yes"/>
      <point x="361" y="310"/>
      <point x="406" y="377"/>
      <point x="471" y="377" type="curve" smooth="yes"/>
      <point x="495" y="377"/>
      <point x="536" y="352"/>
      <point x="565" y="330" type="curve" smooth="yes"/>
      <point x="573" y="324"/>
      <point x="579" y="319"/>
      <point x="586" y="319" type="curve" smooth="yes"/>
      <point x="603" y="319"/>
      <point x="629" y="343"/>
      <point x="629" y="360" type="curve" smooth="yes"/>
      <point x="629" y="367"/>
      <point x="625" y="373"/>
      <point x="617" y="379" type="curve" smooth="yes"/>
      <point x="585" y="402"/>
      <point x="546" y="414"/>
      <point x="503" y="414" type="curve" smooth="yes"/>
      <point x="248" y="414"/>
      <point x="35" y="308"/>
      <point x="35" y="180" type="curve" smooth="yes"/>
      <point x="35" y="69"/>
      <point x="216" y="-15"/>
      <point x="452" y="-15" type="curve" smooth="yes"/>
    </contour>
  </outline>
</glyph>
<glyph name="d" format="1">
  <advance width="1026"/>
  <unicode hex="0064"/>
  <outline>
    <contour>
      <point x="613" y="-19" type="curve" smooth="yes"/>
      <point x="625" y="-19"/>
      <point x="628" y="-19"/>
      <point x="661" y="-13" type="curve" smooth="yes"/>
      <point x="801" y="7"/>
      <point x="899" y="16"/>
      <point x="1010" y="21" type="curve"/>
      <point x="1017" y="21"/>
      <point x="1024" y="30"/>
      <point x="1024" y="39" type="curve" smooth="yes"/>
      <point x="1024" y="47"/>
      <point x="1019" y="49"/>
      <point x="1006" y="48" type="curve" smooth="yes"/>
      <point x="989" y="47"/>
      <point x="970" y="45"/>
      <point x="963" y="45" type="curve" smooth="yes"/>
      <point x="948" y="45"/>
      <point x="942" y="64"/>
      <point x="942" y="110" type="curve" smooth="yes"/>
      <point x="942" y="562" type="line" smooth="yes"/>
      <point x="942" y="652"/>
      <point x="949" y="686"/>
      <point x="949" y="698" type="curve"/>
      <point x="948" y="702"/>
      <point x="946" y="704"/>
      <point x="942" y="704" type="curve" smooth="yes"/>
      <point x="933" y="704"/>
      <point x="918" y="703"/>
      <point x="902" y="701" type="curve" smooth="yes"/>
      <point x="845" y="693"/>
      <point x="753" y="679"/>
      <point x="573" y="664" type="curve" smooth="yes"/>
      <point x="555" y="662"/>
      <point x="549" y="657"/>
      <point x="549" y="652" type="curve" smooth="yes"/>
      <point x="549" y="646"/>
      <point x="552" y="640"/>
      <point x="558" y="639" type="curve" smooth="yes"/>
      <point x="590" y="633"/>
      <point x="608" y="620"/>
      <point x="608" y="566" type="curve" smooth="yes"/>
      <point x="608" y="424" type="line" smooth="yes"/>
      <point x="608" y="406"/>
      <point x="601" y="400"/>
      <point x="595" y="400" type="curve" smooth="yes"/>
      <point x="590" y="400"/>
      <point x="583" y="401"/>
      <point x="572" y="403" type="curve" smooth="yes"/>
      <point x="545" y="408"/>
      <point x="491" y="414"/>
      <point x="442" y="414" type="curve" smooth="yes"/>
      <point x="189" y="414"/>
      <point x="35" y="306"/>
      <point x="35" y="190" type="curve" smooth="yes"/>
      <point x="35" y="89"/>
      <point x="163" y="-14"/>
      <point x="369" y="-14" type="curve" smooth="yes"/>
      <point x="489" y="-14"/>
      <point x="570" y="26"/>
      <point x="606" y="57" type="curve"/>
      <point x="607" y="51" type="line" smooth="yes"/>
      <point x="610" y="34"/>
      <point x="602" y="4"/>
      <point x="602" y="-9" type="curve" smooth="yes"/>
      <point x="602" y="-12"/>
      <point x="610" y="-19"/>
    </contour>
    <contour>
      <point x="512" y="38" type="curve" smooth="yes"/>
      <point x="468" y="38"/>
      <point x="362" y="62"/>
      <point x="362" y="213" type="curve" smooth="yes"/>
      <point x="362" y="346"/>
      <point x="439" y="379"/>
      <point x="485" y="379" type="curve" smooth="yes"/>
      <point x="559" y="379"/>
      <point x="608" y="321"/>
      <point x="608" y="267" type="curve" smooth="yes"/>
      <point x="607" y="87" type="line"/>
      <point x="582" y="58"/>
      <point x="547" y="38"/>
    </contour>
  </outline>
</glyph>
<glyph name="l" format="1">
  <advance width="504"/>
  <unicode hex="006C"/>
  <outline>
    <contour>
      <point x="65" y="-3" type="curve" smooth="yes"/>
      <point x="155" y="-3"/>
      <point x="171" y="2"/>
      <point x="252" y="2" type="curve" smooth="yes"/>
      <point x="333" y="2"/>
      <point x="349" y="-3"/>
      <point x="439" y="-3" type="curve" smooth="yes"/>
      <point x="455" y="-3"/>
      <point x="485" y="-2"/>
      <point x="485" y="6" type="curve" smooth="yes"/>
      <point x="485" y="16"/>
      <point x="473" y="20"/>
      <point x="462" y="24" type="curve"/>
      <point x="442" y="30"/>
      <point x="419" y="35"/>
      <point x="419" y="62" type="curve" smooth="yes"/>
      <point x="419" y="562" type="line" smooth="yes"/>
      <point x="419" y="652"/>
      <point x="426" y="686"/>
      <point x="426" y="698" type="curve" smooth="yes"/>
      <point x="426" y="701"/>
      <point x="424" y="705"/>
      <point x="421" y="705" type="curve" smooth="yes"/>
      <point x="415" y="705"/>
      <point x="409" y="704"/>
      <point x="403" y="703" type="curve" smooth="yes"/>
      <point x="304" y="691"/>
      <point x="211" y="676"/>
      <point x="53" y="664" type="curve" smooth="yes"/>
      <point x="40" y="663"/>
      <point x="31" y="658"/>
      <point x="31" y="652" type="curve" smooth="yes"/>
      <point x="31" y="646"/>
      <point x="34" y="640"/>
      <point x="39" y="639" type="curve" smooth="yes"/>
      <point x="72" y="632"/>
      <point x="85" y="605"/>
      <point x="85" y="566" type="curve" smooth="yes"/>
      <point x="85" y="62" type="line" smooth="yes"/>
      <point x="85" y="35"/>
      <point x="62" y="30"/>
      <point x="42" y="24" type="curve"/>
      <point x="31" y="20"/>
      <point x="19" y="16"/>
      <point x="19" y="6" type="curve" smooth="yes"/>
      <point x="19" y="-2"/>
      <point x="49" y="-3"/>
    </contour>
  </outline>
</glyph>
<glyph name="m" format="1">
  <advance width="1571"/>
  <unicode hex="006D"/>
  <outline>
    <contour>
      <point x="70" y="-3" type="curve" smooth="yes"/>
      <point x="162" y="-3"/>
      <point x="176" y="2"/>
      <point x="257" y="2" type="curve" smooth="yes"/>
      <point x="338" y="2"/>
      <point x="352" y="-3"/>
      <point x="444" y="-3" type="curve" smooth="yes"/>
      <point x="472" y="-3"/>
      <point x="490" y="0"/>
      <point x="490" y="8" type="curve" smooth="yes"/>
      <point x="490" y="18"/>
      <point x="478" y="20"/>
      <point x="467" y="24" type="curve" smooth="yes"/>
      <point x="447" y="30"/>
      <point x="424" y="35"/>
      <point x="424" y="62" type="curve" smooth="yes"/>
      <point x="424" y="268" type="line" smooth="yes"/>
      <point x="424" y="302"/>
      <point x="432" y="326"/>
      <point x="451" y="340" type="curve" smooth="yes"/>
      <point x="476" y="360"/>
      <point x="504" y="367"/>
      <point x="538" y="367" type="curve" smooth="yes"/>
      <point x="581" y="367"/>
      <point x="618" y="320"/>
      <point x="618" y="272" type="curve" smooth="yes"/>
      <point x="618" y="62" type="line" smooth="yes"/>
      <point x="618" y="35"/>
      <point x="594" y="30"/>
      <point x="574" y="24" type="curve" smooth="yes"/>
      <point x="563" y="20"/>
      <point x="551" y="18"/>
      <point x="551" y="8" type="curve" smooth="yes"/>
      <point x="551" y="0"/>
      <point x="572" y="-3"/>
      <point x="597" y="-3" type="curve" smooth="yes"/>
      <point x="688" y="-3"/>
      <point x="707" y="2"/>
      <point x="787" y="2" type="curve" smooth="yes"/>
      <point x="867" y="2"/>
      <point x="883" y="-3"/>
      <point x="974" y="-3" type="curve" smooth="yes"/>
      <point x="1004" y="-3"/>
      <point x="1020" y="0"/>
      <point x="1020" y="8" type="curve" smooth="yes"/>
      <point x="1020" y="17"/>
      <point x="1010" y="21"/>
      <point x="997" y="24" type="curve" smooth="yes"/>
      <point x="977" y="29"/>
      <point x="952" y="35"/>
      <point x="952" y="62" type="curve" smooth="yes"/>
      <point x="952" y="268" type="line" smooth="yes"/>
      <point x="952" y="303"/>
      <point x="962" y="326"/>
      <point x="980" y="340" type="curve" smooth="yes"/>
      <point x="1005" y="360"/>
      <point x="1033" y="367"/>
      <point x="1067" y="367" type="curve" smooth="yes"/>
      <point x="1110" y="367"/>
      <point x="1147" y="320"/>
      <point x="1147" y="272" type="curve" smooth="yes"/>
      <point x="1147" y="62" type="line" smooth="yes"/>
      <point x="1147" y="35"/>
      <point x="1125" y="29"/>
      <point x="1104" y="24" type="curve" smooth="yes"/>
      <point x="1091" y="21"/>
      <point x="1081" y="18"/>
      <point x="1081" y="8" type="curve" smooth="yes"/>
      <point x="1081" y="0"/>
      <point x="1099" y="-3"/>
      <point x="1127" y="-3" type="curve" smooth="yes"/>
      <point x="1219" y="-3"/>
      <point x="1238" y="2"/>
      <point x="1319" y="2" type="curve" smooth="yes"/>
      <point x="1400" y="2"/>
      <point x="1410" y="-3"/>
      <point x="1502" y="-3" type="curve" smooth="yes"/>
      <point x="1536" y="-3"/>
      <point x="1548" y="0"/>
      <point x="1548" y="8" type="curve" smooth="yes"/>
      <point x="1548" y="17"/>
      <point x="1538" y="20"/>
      <point x="1525" y="24" type="curve" smooth="yes"/>
      <point x="1505" y="30"/>
      <point x="1482" y="35"/>
      <point x="1482" y="62" type="curve" smooth="yes"/>
      <point x="1482" y="275" type="line" smooth="yes"/>
      <point x="1482" y="345"/>
      <point x="1412" y="414"/>
      <point x="1282" y="414" type="curve" smooth="yes"/>
      <point x="1150" y="414"/>
      <point x="1040" y="393"/>
      <point x="954" y="367" type="curve"/>
      <point x="948" y="367" type="line"/>
      <point x="905" y="402"/>
      <point x="843" y="414"/>
      <point x="747" y="414" type="curve" smooth="yes"/>
      <point x="591" y="414"/>
      <point x="492" y="387"/>
      <point x="431" y="367" type="curve"/>
      <point x="429" y="367" type="line"/>
      <point x="428" y="368"/>
      <point x="427" y="371"/>
      <point x="427" y="375" type="curve" smooth="yes"/>
      <point x="427" y="378"/>
      <point x="432" y="406"/>
      <point x="432" y="415" type="curve" smooth="yes"/>
      <point x="432" y="426"/>
      <point x="426" y="430"/>
      <point x="413" y="430" type="curve" smooth="yes"/>
      <point x="401" y="430"/>
      <point x="392" y="427"/>
      <point x="385" y="426" type="curve" smooth="yes"/>
      <point x="273" y="403"/>
      <point x="236" y="387"/>
      <point x="68" y="374" type="curve" smooth="yes"/>
      <point x="52" y="373"/>
      <point x="43" y="370"/>
      <point x="43" y="362" type="curve" smooth="yes"/>
      <point x="43" y="354"/>
      <point x="46" y="350"/>
      <point x="52" y="349" type="curve" smooth="yes"/>
      <point x="86" y="343"/>
      <point x="90" y="313"/>
      <point x="90" y="277" type="curve" smooth="yes"/>
      <point x="90" y="62" type="line" smooth="yes"/>
      <point x="90" y="35"/>
      <point x="66" y="30"/>
      <point x="47" y="24" type="curve" smooth="yes"/>
      <point x="34" y="20"/>
      <point x="24" y="17"/>
      <point x="24" y="8" type="curve" smooth="yes"/>
      <point x="24" y="-1"/>
      <point x="45" y="-3"/>
    </contour>
  </outline>
</glyph>
<glyph name="p" format="1">
  <advance width="1033"/>
  <unicode hex="0070"/>
  <outline>
    <contour>
      <point x="66" y="-285" type="curve" smooth="yes"/>
      <point x="152" y="-285"/>
      <point x="165" y="-280"/>
      <point x="243" y="-280" type="curve" smooth="yes"/>
      <point x="320" y="-280"/>
      <point x="365" y="-285"/>
      <point x="451" y="-285" type="curve" smooth="yes"/>
      <point x="469" y="-285"/>
      <point x="500" y="-284"/>
      <point x="500" y="-276" type="curve" smooth="yes"/>
      <point x="500" y="-266"/>
      <point x="488" y="-262"/>
      <point x="477" y="-258" type="curve"/>
      <point x="457" y="-252"/>
      <point x="419" y="-247"/>
      <point x="419" y="-220" type="curve" smooth="yes"/>
      <point x="419" y="-33" type="line" smooth="yes"/>
      <point x="419" y="-25"/>
      <point x="420" y="35"/>
      <point x="424" y="35" type="curve"/>
      <point x="459" y="0"/>
      <point x="551" y="-14"/>
      <point x="601" y="-14" type="curve" smooth="yes"/>
      <point x="823" y="-14"/>
      <point x="998" y="106"/>
      <point x="998" y="225" type="curve" smooth="yes"/>
      <point x="998" y="319"/>
      <point x="890" y="414"/>
      <point x="708" y="414" type="curve" smooth="yes"/>
      <point x="597" y="414"/>
      <point x="456" y="376"/>
      <point x="422" y="360" type="curve"/>
      <point x="421" y="361"/>
      <point x="421" y="364"/>
      <point x="421" y="367" type="curve" smooth="yes"/>
      <point x="421" y="373"/>
      <point x="426" y="405"/>
      <point x="426" y="417" type="curve" smooth="yes"/>
      <point x="426" y="421"/>
      <point x="423" y="426"/>
      <point x="420" y="426" type="curve" smooth="yes"/>
      <point x="419" y="426"/>
      <point x="419" y="425"/>
      <point x="418" y="425" type="curve"/>
      <point x="317" y="412"/>
      <point x="213" y="398"/>
      <point x="53" y="385" type="curve" smooth="yes"/>
      <point x="40" y="384"/>
      <point x="31" y="379"/>
      <point x="31" y="373" type="curve" smooth="yes"/>
      <point x="31" y="367"/>
      <point x="34" y="361"/>
      <point x="39" y="360" type="curve" smooth="yes"/>
      <point x="72" y="353"/>
      <point x="85" y="302"/>
      <point x="85" y="287" type="curve" smooth="yes"/>
      <point x="85" y="-220" type="line" smooth="yes"/>
      <point x="85" y="-247"/>
      <point x="62" y="-252"/>
      <point x="42" y="-258" type="curve"/>
      <point x="31" y="-262"/>
      <point x="19" y="-266"/>
      <point x="19" y="-276" type="curve" smooth="yes"/>
      <point x="19" y="-284"/>
      <point x="50" y="-285"/>
    </contour>
    <contour>
      <point x="538" y="17" type="curve" smooth="yes"/>
      <point x="484" y="17"/>
      <point x="419" y="85"/>
      <point x="419" y="166" type="curve" smooth="yes"/>
      <point x="419" y="190"/>
      <point x="422" y="259"/>
      <point x="422" y="317" type="curve" smooth="yes"/>
      <point x="422" y="331"/>
      <point x="484" y="369"/>
      <point x="532" y="369" type="curve" smooth="yes"/>
      <point x="605" y="369"/>
      <point x="668" y="317"/>
      <point x="668" y="193" type="curve" smooth="yes"/>
      <point x="668" y="59"/>
      <point x="577" y="17"/>
    </contour>
  </outline>
</glyph>
<glyph name="r" format="1">
  <advance width="597"/>
  <unicode hex="0072"/>
  <outline>
    <contour>
      <point x="165" y="-3"/>
      <point x="178" y="2"/>
      <point x="258" y="2" type="curve" smooth="yes"/>
      <point x="337" y="2"/>
      <point x="364" y="-3"/>
      <point x="455" y="-3" type="curve" smooth="yes"/>
      <point x="486" y="-3"/>
      <point x="500" y="0"/>
      <point x="500" y="8" type="curve" smooth="yes"/>
      <point x="500" y="17"/>
      <point x="491" y="20"/>
      <point x="477" y="24" type="curve" smooth="yes"/>
      <point x="444" y="34"/>
      <point x="424" y="44"/>
      <point x="424" y="62" type="curve" smooth="yes"/>
      <point x="424" y="264" type="line" smooth="yes"/>
      <point x="424" y="331"/>
      <point x="461" y="348"/>
      <point x="493" y="348" type="curve" smooth="yes"/>
      <point x="503" y="348"/>
      <point x="514" y="343"/>
      <point x="525" y="339" type="curve" smooth="yes"/>
      <point x="535" y="334"/>
      <point x="545" y="330"/>
      <point x="553" y="330" type="curve" smooth="yes"/>
      <point x="573" y="330"/>
      <point x="592" y="362"/>
      <point x="592" y="382" type="curve" smooth="yes"/>
      <point x="592" y="400"/>
      <point x="572" y="414"/>
      <point x="544" y="414" type="curve" smooth="yes"/>
      <point x="505" y="414"/>
      <point x="461" y="385"/>
      <point x="429" y="346" type="curve"/>
      <point x="428" y="346"/>
      <point x="427" y="347"/>
      <point x="427" y="348" type="curve"/>
      <point x="429" y="380"/>
      <point x="430" y="416"/>
      <point x="430" y="423" type="curve"/>
      <point x="430" y="427"/>
      <point x="428" y="430"/>
      <point x="425" y="430" type="curve" smooth="yes"/>
      <point x="416" y="430"/>
      <point x="403" y="428"/>
      <point x="378" y="423" type="curve" smooth="yes"/>
      <point x="312" y="410"/>
      <point x="176" y="385"/>
      <point x="67" y="374" type="curve" smooth="yes"/>
      <point x="54" y="373"/>
      <point x="39" y="368"/>
      <point x="39" y="362" type="curve" smooth="yes"/>
      <point x="39" y="356"/>
      <point x="44" y="350"/>
      <point x="49" y="349" type="curve" smooth="yes"/>
      <point x="82" y="342"/>
      <point x="90" y="313"/>
      <point x="90" y="277" type="curve" smooth="yes"/>
      <point x="90" y="62" type="line" smooth="yes"/>
      <point x="90" y="43"/>
      <point x="77" y="31"/>
      <point x="52" y="24" type="curve" smooth="yes"/>
      <point x="37" y="20"/>
      <point x="29" y="18"/>
      <point x="29" y="8" type="curve" smooth="yes"/>
      <point x="29" y="0"/>
      <point x="43" y="-3"/>
      <point x="74" y="-3" type="curve" smooth="yes"/>
    </contour>
  </outline>
</glyph>
<glyph name="t" format="1">
  <advance width="578"/>
  <unicode hex="0074"/>
  <outline>
    <contour>
      <point x="313" y="-14" type="curve" smooth="yes"/>
      <point x="447" y="-14"/>
      <point x="570" y="29"/>
      <point x="570" y="51" type="curve" smooth="yes"/>
      <point x="570" y="58"/>
      <point x="570" y="61"/>
      <point x="565" y="61" type="curve" smooth="yes"/>
      <point x="561" y="61"/>
      <point x="559" y="57"/>
      <point x="553" y="54" type="curve" smooth="yes"/>
      <point x="541" y="47"/>
      <point x="524" y="41"/>
      <point x="485" y="41" type="curve" smooth="yes"/>
      <point x="442" y="41"/>
      <point x="419" y="73"/>
      <point x="419" y="127" type="curve" smooth="yes"/>
      <point x="419" y="324" type="line" smooth="yes"/>
      <point x="419" y="351"/>
      <point x="425" y="352"/>
      <point x="459" y="352" type="curve" smooth="yes"/>
      <point x="558" y="352" type="line" smooth="yes"/>
      <point x="563" y="352"/>
      <point x="568" y="366"/>
      <point x="568" y="378" type="curve" smooth="yes"/>
      <point x="568" y="390"/>
      <point x="563" y="400"/>
      <point x="558" y="400" type="curve" smooth="yes"/>
      <point x="444" y="400" type="line" smooth="yes"/>
      <point x="427" y="400"/>
      <point x="418" y="404"/>
      <point x="420" y="419" type="curve" smooth="yes"/>
      <point x="423" y="449" type="line" smooth="yes"/>
      <point x="426" y="471"/>
      <point x="413" y="475"/>
      <point x="385" y="475" type="curve" smooth="yes"/>
      <point x="363" y="475"/>
      <point x="351" y="470"/>
      <point x="320" y="458" type="curve" smooth="yes"/>
      <point x="276" y="441"/>
      <point x="177" y="410"/>
      <point x="56" y="383" type="curve" smooth="yes"/>
      <point x="51" y="382"/>
      <point x="35" y="376"/>
      <point x="35" y="366" type="curve" smooth="yes"/>
      <point x="35" y="356"/>
      <point x="40" y="352"/>
      <point x="47" y="352" type="curve" smooth="yes"/>
      <point x="53" y="352" type="line" smooth="yes"/>
      <point x="79" y="352"/>
      <point x="85" y="348"/>
      <point x="85" y="337" type="curve" smooth="yes"/>
      <point x="85" y="105" type="line" smooth="yes"/>
      <point x="85" y="26"/>
      <point x="171" y="-14"/>
    </contour>
  </outline>
</glyph>
<glyph name="w" format="1">
  <advance width="1263"/>
  <unicode hex="0077"/>
  <outline>
    <contour>
      <point x="363" y="-23" type="curve" smooth="yes"/>
      <point x="424" y="-23"/>
      <point x="484" y="-20"/>
      <point x="524" y="-16" type="curve"/>
      <point x="633" y="241" type="line" smooth="yes"/>
      <point x="636" y="248"/>
      <point x="638" y="251"/>
      <point x="640" y="251" type="curve" smooth="yes"/>
      <point x="642" y="250"/>
      <point x="644" y="247"/>
      <point x="646" y="242" type="curve" smooth="yes"/>
      <point x="750" y="-16" type="line"/>
      <point x="786" y="-20"/>
      <point x="840" y="-23"/>
      <point x="894" y="-23" type="curve" smooth="yes"/>
      <point x="965" y="-23"/>
      <point x="1019" y="-20"/>
      <point x="1055" y="-16" type="curve"/>
      <point x="1192" y="312" type="line" smooth="yes"/>
      <point x="1205" y="342"/>
      <point x="1225" y="372"/>
      <point x="1245" y="378" type="curve"/>
      <point x="1256" y="382"/>
      <point x="1268" y="386"/>
      <point x="1268" y="396" type="curve" smooth="yes"/>
      <point x="1268" y="404"/>
      <point x="1256" y="405"/>
      <point x="1248" y="405" type="curve" smooth="yes"/>
      <point x="1226" y="405"/>
      <point x="1227" y="400"/>
      <point x="1190" y="400" type="curve" smooth="yes"/>
      <point x="1154" y="400"/>
      <point x="1144" y="405"/>
      <point x="1115" y="405" type="curve" smooth="yes"/>
      <point x="1108" y="405"/>
      <point x="1095" y="404"/>
      <point x="1095" y="396" type="curve" smooth="yes"/>
      <point x="1095" y="386"/>
      <point x="1107" y="382"/>
      <point x="1118" y="378" type="curve" smooth="yes"/>
      <point x="1133" y="373"/>
      <point x="1153" y="358"/>
      <point x="1153" y="334" type="curve" smooth="yes"/>
      <point x="1153" y="325"/>
      <point x="1151" y="306"/>
      <point x="1146" y="295" type="curve" smooth="yes"/>
      <point x="1070" y="118" type="line" smooth="yes"/>
      <point x="1067" y="111"/>
      <point x="1065" y="108"/>
      <point x="1062" y="108" type="curve" smooth="yes"/>
      <point x="1060" y="108"/>
      <point x="1057" y="112"/>
      <point x="1054" y="119" type="curve" smooth="yes"/>
      <point x="979" y="312" type="line" smooth="yes"/>
      <point x="974" y="324"/>
      <point x="972" y="334"/>
      <point x="972" y="342" type="curve" smooth="yes"/>
      <point x="972" y="366"/>
      <point x="991" y="373"/>
      <point x="1006" y="378" type="curve" smooth="yes"/>
      <point x="1017" y="382"/>
      <point x="1029" y="386"/>
      <point x="1029" y="396" type="curve" smooth="yes"/>
      <point x="1029" y="404"/>
      <point x="997" y="405"/>
      <point x="980" y="405" type="curve" smooth="yes"/>
      <point x="926" y="405"/>
      <point x="865" y="400"/>
      <point x="774" y="400" type="curve" smooth="yes"/>
      <point x="684" y="400"/>
      <point x="635" y="405"/>
      <point x="591" y="405" type="curve" smooth="yes"/>
      <point x="571" y="405"/>
      <point x="542" y="404"/>
      <point x="542" y="396" type="curve" smooth="yes"/>
      <point x="542" y="386"/>
      <point x="554" y="382"/>
      <point x="565" y="378" type="curve" smooth="yes"/>
      <point x="588" y="369"/>
      <point x="616" y="350"/>
      <point x="616" y="321" type="curve" smooth="yes"/>
      <point x="616" y="306"/>
      <point x="615" y="290"/>
      <point x="608" y="273" type="curve" smooth="yes"/>
      <point x="540" y="111" type="line" smooth="yes"/>
      <point x="539" y="108"/>
      <point x="537" y="107"/>
      <point x="535" y="107" type="curve" smooth="yes"/>
      <point x="533" y="107"/>
      <point x="531" y="108"/>
      <point x="530" y="111" type="curve" smooth="yes"/>
      <point x="452" y="312" type="line" smooth="yes"/>
      <point x="449" y="320"/>
      <point x="447" y="329"/>
      <point x="447" y="338" type="curve" smooth="yes"/>
      <point x="447" y="357"/>
      <point x="454" y="374"/>
      <point x="468" y="378" type="curve"/>
      <point x="479" y="382"/>
      <point x="491" y="386"/>
      <point x="491" y="396" type="curve" smooth="yes"/>
      <point x="491" y="404"/>
      <point x="454" y="405"/>
      <point x="441" y="405" type="curve" smooth="yes"/>
      <point x="372" y="405"/>
      <point x="305" y="400"/>
      <point x="236" y="400" type="curve" smooth="yes"/>
      <point x="171" y="400"/>
      <point x="117" y="405"/>
      <point x="55" y="405" type="curve" smooth="yes"/>
      <point x="37" y="405"/>
      <point x="5" y="404"/>
      <point x="5" y="396" type="curve" smooth="yes"/>
      <point x="5" y="386"/>
      <point x="17" y="382"/>
      <point x="28" y="378" type="curve"/>
      <point x="48" y="372"/>
      <point x="70" y="355"/>
      <point x="80" y="329" type="curve" smooth="yes"/>
      <point x="219" y="-16" type="line"/>
      <point x="239" y="-20"/>
      <point x="303" y="-23"/>
    </contour>
  </outline>
</glyph>
<glyph name="braceleft" format="1">
  <advance width="511"/>
  <unicode hex="007B"/>
  <outline>
    <contour>
      <point x="471" y="-169"/>
      <point x="491" y="-157"/>
      <point x="491" y="-139" type="curve" smooth="yes"/>
      <point x="491" y="-118"/>
      <point x="466" y="-115"/>
      <point x="448" y="-113" type="curve" smooth="yes"/>
      <point x="395" y="-107"/>
      <point x="363" y="-91"/>
      <point x="363" y="-26" type="curve" smooth="yes"/>
      <point x="363" y="42"/>
      <point x="376" y="89"/>
      <point x="376" y="147" type="curve" smooth="yes"/>
      <point x="376" y="213"/>
      <point x="293" y="270"/>
      <point x="260" y="279" type="curve"/>
      <point x="257" y="280"/>
      <point x="254" y="281"/>
      <point x="258" y="283" type="curve"/>
      <point x="300" y="300"/>
      <point x="376" y="348"/>
      <point x="376" y="414" type="curve" smooth="yes"/>
      <point x="376" y="467"/>
      <point x="363" y="510"/>
      <point x="363" y="573" type="curve" smooth="yes"/>
      <point x="363" y="638"/>
      <point x="395" y="654"/>
      <point x="448" y="660" type="curve" smooth="yes"/>
      <point x="466" y="662"/>
      <point x="491" y="665"/>
      <point x="491" y="686" type="curve" smooth="yes"/>
      <point x="491" y="704"/>
      <point x="471" y="715"/>
      <point x="451" y="715" type="curve" smooth="yes"/>
      <point x="302" y="711"/>
      <point x="143" y="676"/>
      <point x="143" y="582" type="curve" smooth="yes"/>
      <point x="143" y="517"/>
      <point x="156" y="474"/>
      <point x="156" y="417" type="curve" smooth="yes"/>
      <point x="156" y="363"/>
      <point x="125" y="335"/>
      <point x="88" y="322" type="curve" smooth="yes"/>
      <point x="56" y="311"/>
      <point x="50" y="293"/>
      <point x="50" y="282" type="curve" smooth="yes"/>
      <point x="50" y="264"/>
      <point x="64" y="251"/>
      <point x="84" y="246" type="curve" smooth="yes"/>
      <point x="116" y="239"/>
      <point x="156" y="215"/>
      <point x="156" y="157" type="curve" smooth="yes"/>
      <point x="156" y="95"/>
      <point x="143" y="49"/>
      <point x="143" y="-35" type="curve" smooth="yes"/>
      <point x="143" y="-129"/>
      <point x="302" y="-161"/>
      <point x="451" y="-168" type="curve" smooth="yes"/>
    </contour>
  </outline>
</glyph>
<glyph name="bar" format="1">
  <advance width="428"/>
  <unicode hex="007C"/>
  <outline>
    <contour>
      <point x="180" y="-289"/>
      <point x="328" y="-286"/>
      <point x="328" y="-221" type="curve" smooth="yes"/>
      <point x="328" y="659" type="line" smooth="yes"/>
      <point x="328" y="701"/>
      <point x="302" y="707"/>
      <point x="275" y="707" type="curve" smooth="yes"/>
      <point x="253" y="707"/>
      <point x="100" y="698"/>
      <point x="100" y="641" type="curve" smooth="yes"/>
      <point x="100" y="-231" type="line" smooth="yes"/>
      <point x="100" y="-282"/>
      <point x="123" y="-289"/>
      <point x="146" y="-289" type="curve" smooth="yes"/>
    </contour>
  </outline>
</glyph>
